<svg width="17" height="16" viewBox="0 0 17 16" fill="none" xmlns="http://www.w3.org/2000/svg">
<path d="M8.49999 9.33341V14.6667H3.16666C3.16666 13.2523 3.72856 11.8957 4.72875 10.8955C5.72895 9.89532 7.0855 9.33341 8.49999 9.33341ZM8.49999 8.66675C6.28999 8.66675 4.49999 6.87675 4.49999 4.66675C4.49999 2.45675 6.28999 0.666748 8.49999 0.666748C10.71 0.666748 12.5 2.45675 12.5 4.66675C12.5 6.87675 10.71 8.66675 8.49999 8.66675ZM10.23 12.5407C10.1454 12.1853 10.1454 11.8149 10.23 11.4594L9.56866 11.0774L10.2353 9.92275L10.8967 10.3047C11.1621 10.0534 11.483 9.86794 11.8333 9.76341V9.00008H13.1667V9.76341C13.5213 9.86875 13.8413 10.0567 14.1033 10.3047L14.7647 9.92275L15.4313 11.0774L14.7707 11.4594C14.855 11.8149 14.855 12.1852 14.7707 12.5407L15.4313 12.9227L14.7647 14.0774L14.1033 13.6954C13.8379 13.9468 13.517 14.1323 13.1667 14.2367V15.0001H11.8333V14.2367C11.483 14.1323 11.1621 13.9468 10.8967 13.6954L10.2353 14.0774L9.56866 12.9227L10.23 12.5407ZM12.5 11.3334C12.3232 11.3334 12.1536 11.4037 12.0286 11.5287C11.9036 11.6537 11.8333 11.8233 11.8333 12.0001C11.8333 12.1769 11.9036 12.3465 12.0286 12.4715C12.1536 12.5965 12.3232 12.6667 12.5 12.6667C12.6768 12.6667 12.8464 12.5965 12.9714 12.4715C13.0964 12.3465 13.1667 12.1769 13.1667 12.0001C13.1667 11.8233 13.0964 11.6537 12.9714 11.5287C12.8464 11.4037 12.6768 11.3334 12.5 11.3334Z" fill="white"/>
</svg>
