<svg width="42" height="42" viewBox="0 0 42 42" fill="none" xmlns="http://www.w3.org/2000/svg">
<path d="M21 38.9375C25.6566 38.9375 29.4315 30.9066 29.4315 21C29.4315 11.0934 25.6566 3.0625 21 3.0625C16.3434 3.0625 12.5685 11.0934 12.5685 21C12.5685 30.9066 16.3434 38.9375 21 38.9375Z" stroke="white" stroke-linecap="round" stroke-linejoin="round"/>
<path d="M25.2157 13.6981C33.7951 18.6506 38.8631 25.9359 36.5347 29.9687C34.2064 34.0016 25.3636 33.2552 16.7842 28.3019C8.20486 23.3494 3.13774 16.065 5.46611 12.0312C6.39711 10.4186 8.36936 9.57074 10.9497 9.44999C14.8234 9.26799 20.0672 10.7249 25.2157 13.6981Z" stroke="white" stroke-linecap="round" stroke-linejoin="round"/>
<path d="M17.8762 18.5946H24.1237M16.8997 21H25.1002M19.1984 23.4054H22.8016M25.2157 28.3019C16.6364 33.2553 7.79449 34.0016 5.46611 29.9688C3.13774 25.9359 8.20486 18.6515 16.7842 13.6981C21.7385 10.8369 26.7802 9.38 30.6049 9.436C33.4031 9.47625 35.5504 10.3268 36.5347 12.0313C38.8622 16.0641 33.796 23.3485 25.2157 28.3019Z" stroke="white" stroke-linecap="round" stroke-linejoin="round"/>
</svg>
