<svg width="40" height="40" viewBox="0 0 40 40" fill="none" xmlns="http://www.w3.org/2000/svg">
<path d="M22.6515 20L30.0734 12.5781C30.4256 12.2265 30.6238 11.7494 30.6242 11.2517C30.6246 10.754 30.4274 10.2765 30.0757 9.92422C29.7241 9.57198 29.247 9.37385 28.7493 9.37341C28.2516 9.37297 27.7741 9.57026 27.4218 9.92188L20 17.3438L12.5781 9.92188C12.2258 9.56964 11.7481 9.37175 11.25 9.37175C10.7518 9.37175 10.2741 9.56964 9.92183 9.92188C9.56959 10.2741 9.3717 10.7519 9.3717 11.25C9.3717 11.7481 9.56959 12.2259 9.92183 12.5781L17.3437 20L9.92183 27.4219C9.56959 27.7741 9.3717 28.2519 9.3717 28.75C9.3717 29.2481 9.56959 29.7259 9.92183 30.0781C10.2741 30.4304 10.7518 30.6283 11.25 30.6283C11.7481 30.6283 12.2258 30.4304 12.5781 30.0781L20 22.6562L27.4218 30.0781C27.7741 30.4304 28.2518 30.6283 28.75 30.6283C29.2481 30.6283 29.7258 30.4304 30.0781 30.0781C30.4303 29.7259 30.6282 29.2481 30.6282 28.75C30.6282 28.2519 30.4303 27.7741 30.0781 27.4219L22.6515 20Z" fill="#727E8C"/>
</svg>
