<svg width="42" height="42" viewBox="0 0 42 42" fill="none" xmlns="http://www.w3.org/2000/svg">
<path d="M21 31.2987C21.5717 31.2987 22.0681 31.0992 22.4893 30.7002C22.9093 30.3024 23.1531 29.8066 23.2208 29.2128H18.7793C18.8457 29.8066 19.0896 30.3024 19.5107 30.7002C19.9307 31.0992 20.4272 31.2987 21 31.2987ZM17.5 24.3652V18.8475C17.5 17.885 17.843 17.0613 18.529 16.3765C19.215 15.6917 20.0387 15.3481 21 15.3457C21.9625 15.3457 22.7868 15.6888 23.4727 16.3748C24.1588 17.0608 24.5012 17.8844 24.5 18.8457V24.3652H17.5ZM21.0053 36.75C18.8283 36.75 16.7808 36.337 14.8628 35.511C12.9459 34.6838 11.2782 33.5615 9.8595 32.144C8.44083 30.7277 7.31792 29.0617 6.49075 27.146C5.66358 25.2303 5.25 23.1834 5.25 21.0053C5.25 18.8283 5.663 16.7808 6.489 14.8628C7.31617 12.9459 8.4385 11.2782 9.856 9.8595C11.2723 8.44083 12.9383 7.31792 14.854 6.49075C16.7697 5.66358 18.8166 5.25 20.9947 5.25C23.1717 5.25 25.2192 5.663 27.1372 6.489C29.0541 7.31617 30.7218 8.4385 32.1405 9.856C33.5592 11.2723 34.6821 12.9383 35.5093 14.854C36.3364 16.7697 36.75 18.8166 36.75 20.9947C36.75 23.1717 36.337 25.2192 35.511 27.1372C34.6838 29.0541 33.5615 30.7218 32.144 32.1405C30.7277 33.5592 29.0617 34.6821 27.146 35.5093C25.2303 36.3364 23.1834 36.75 21.0053 36.75ZM21 35C24.9083 35 28.2187 33.6437 30.9312 30.9312C33.6437 28.2187 35 24.9083 35 21C35 17.0917 33.6437 13.7812 30.9312 11.0687C28.2187 8.35625 24.9083 7 21 7C17.0917 7 13.7812 8.35625 11.0687 11.0687C8.35625 13.7812 7 17.0917 7 21C7 24.9083 8.35625 28.2187 11.0687 30.9312C13.7812 33.6437 17.0917 35 21 35ZM14.6737 26.5195H27.3263C27.6319 26.5195 27.888 26.4163 28.0945 26.2098C28.301 26.0033 28.4043 25.7472 28.4043 25.4415C28.4043 25.137 28.301 24.8815 28.0945 24.675C27.888 24.4685 27.6319 24.3652 27.3263 24.3652H26.6542V19.614C26.6542 18.1265 26.2623 16.7749 25.4783 15.5592C24.6943 14.3447 23.6052 13.5782 22.211 13.2598V11.8457C22.211 11.4841 22.0996 11.1807 21.8768 10.9358C21.6539 10.6908 21.3617 10.5683 21 10.5683C20.6383 10.5683 20.3461 10.6908 20.1232 10.9358C19.9004 11.1807 19.789 11.4841 19.789 11.8457V13.2598C18.3948 13.5782 17.3057 14.3337 16.5217 15.526C15.7378 16.7183 15.3457 18.0582 15.3457 19.5457V24.3652H14.6737C14.3681 24.3652 14.112 24.4685 13.9055 24.675C13.699 24.8815 13.5957 25.137 13.5957 25.4415C13.5957 25.7472 13.699 26.0033 13.9055 26.2098C14.112 26.4163 14.3681 26.5195 14.6737 26.5195Z" fill="#ECEDF0"/>
</svg>
