<svg width="15" height="14" viewBox="0 0 15 14" fill="none" xmlns="http://www.w3.org/2000/svg">
<path d="M13.3478 1L12.0433 2.26149M12.0433 2.26149L14 4.15374L11.7172 6.36135L9.76057 4.46911M12.0433 2.26149L9.76057 4.46911M7.07994 7.06148C7.41671 7.38282 7.68442 7.76542 7.86766 8.18723C8.05091 8.60905 8.14606 9.06175 8.14764 9.51927C8.14923 9.97679 8.05722 10.4301 7.8769 10.8531C7.69658 11.2761 7.43153 11.6604 7.09699 11.9839C6.76246 12.3074 6.36506 12.5638 5.92767 12.7381C5.49027 12.9125 5.02153 13.0015 4.54844 13C4.07534 12.9984 3.60722 12.9064 3.17105 12.7292C2.73488 12.552 2.33926 12.2931 2.00697 11.9674C1.35353 11.3132 0.991962 10.4368 1.00014 9.52726C1.00831 8.61767 1.38557 7.74757 2.05067 7.10437C2.71577 6.46117 3.61549 6.09633 4.55604 6.08842C5.4966 6.08052 6.40339 6.42955 7.07994 7.06148ZM7.07994 7.06148L9.76057 4.46911" stroke="white" stroke-linecap="round" stroke-linejoin="round"/>
</svg>
