<svg width="48" height="48" viewBox="0 0 48 48" fill="none" xmlns="http://www.w3.org/2000/svg">
<path d="M42.42 31.78C41.1477 34.7889 39.1576 37.4404 36.6238 39.5026C34.09 41.5647 31.0896 42.9748 27.8849 43.6095C24.6802 44.2442 21.3689 44.0843 18.2403 43.1436C15.1118 42.2029 12.2613 40.5101 9.93805 38.2133C7.61484 35.9165 5.88964 33.0855 4.91328 29.9679C3.93692 26.8503 3.73914 23.5409 4.33721 20.3292C4.93528 17.1175 6.311 14.1012 8.3441 11.544C10.3772 8.98684 13.0058 6.96661 16 5.65997" stroke="#ECEDF0" stroke-width="2" stroke-linecap="round" stroke-linejoin="round"/>
<path d="M44 24C44 21.3736 43.4827 18.7728 42.4776 16.3463C41.4725 13.9198 39.9993 11.715 38.1421 9.85786C36.285 8.00069 34.0802 6.5275 31.6537 5.52241C29.2272 4.51732 26.6264 4 24 4V24H44Z" stroke="#ECEDF0" stroke-width="2" stroke-linecap="round" stroke-linejoin="round"/>
</svg>
