<svg width="48" height="42" viewBox="0 0 48 42" fill="none" xmlns="http://www.w3.org/2000/svg">
<path d="M35 35.5V33.25C35 31.3935 34.2625 29.613 32.9497 28.3003C31.637 26.9875 29.8565 26.25 28 26.25H14C12.1435 26.25 10.363 26.9875 9.05025 28.3003C7.7375 29.613 7 31.3935 7 33.25V36.75" stroke="#ECEDF0" stroke-width="2" stroke-linecap="round" stroke-linejoin="round"/>
<path d="M21 19.25C24.866 19.25 28 16.116 28 12.25C28 8.38401 24.866 5.25 21 5.25C17.134 5.25 14 8.38401 14 12.25C14 16.116 17.134 19.25 21 19.25Z" stroke="#ECEDF0" stroke-width="2" stroke-linecap="round" stroke-linejoin="round"/>
<path d="M41 36.75V33.25C41 31.3935 40.2625 29.613 38.9497 28.3003C37.637 26.9875 35.8565 26.25 34 26.25H20C18.1435 26.25 16.363 26.9875 15.0503 28.3003C13.7375 29.613 13 31.3935 13 33.25V36.75" fill="#424D65"/>
<path d="M41 36.75V33.25C41 31.3935 40.2625 29.613 38.9497 28.3003C37.637 26.9875 35.8565 26.25 34 26.25H20C18.1435 26.25 16.363 26.9875 15.0503 28.3003C13.7375 29.613 13 31.3935 13 33.25V36.75" stroke="#ECEDF0" stroke-width="2" stroke-linecap="round" stroke-linejoin="round"/>
<path d="M27 19.25C30.866 19.25 34 16.116 34 12.25C34 8.38401 30.866 5.25 27 5.25C23.134 5.25 20 8.38401 20 12.25C20 16.116 23.134 19.25 27 19.25Z" fill="#424D65" stroke="#ECEDF0" stroke-width="2" stroke-linecap="round" stroke-linejoin="round"/>
</svg>
