<svg width="52" height="52" viewBox="0 0 52 52" fill="none" xmlns="http://www.w3.org/2000/svg">
<circle cx="26" cy="26" r="26" fill="white"/>
<path d="M30.4688 11.7875C28.75 11.9625 27.8438 12.1375 26.8563 12.475C25.25 13.0375 24.15 13.8625 23.8313 14.7625L23.7188 15.0625L17.9375 15.075L12.1562 15.0938L11.8 15.2688C11.2688 15.5313 10.7938 15.9938 10.55 16.4875L10.3438 16.9063V25.5V34.0938L10.5375 34.5063C10.8813 35.225 11.5688 35.7625 12.3625 35.9313C12.5938 35.9813 14.2938 36 17.8438 36H23L23.0938 36.225C23.4875 37.1688 23.4812 38.4813 23.075 39.3125L22.9688 39.5313L22.1625 39.55C21.6938 39.5563 21.3188 39.5938 21.2688 39.6375C21.1375 39.7438 21.1687 40.1063 21.3063 40.1875C21.3875 40.2313 22.975 40.25 26.025 40.25C31.0625 40.25 30.8125 40.2688 30.8125 39.8813C30.8125 39.5938 30.725 39.5625 29.8687 39.5625C29.2812 39.5625 29.0625 39.5438 29.0063 39.475C28.825 39.2625 28.675 38.6313 28.6438 37.9938C28.6063 37.2938 28.6625 36.9313 28.875 36.3563L29.0063 36H34.1562C37.7063 36 39.4062 35.9813 39.6375 35.9313C40.4312 35.7625 41.0875 35.25 41.45 34.5188L41.6562 34.0938V25.5V16.9063L41.4937 16.5563C41.1812 15.9 40.6125 15.4 39.8875 15.1563C39.5 15.025 39.4813 15.0063 39.3687 14.725C38.875 13.4125 36.8625 12.35 34.075 11.9375C33.2563 11.8125 31.0813 11.725 30.4688 11.7875ZM32.5938 12.5C36.3125 12.7375 39.0312 14.0938 38.7437 15.5688C38.7188 15.7188 38.6938 15.8625 38.6875 15.8875C38.6812 16.0125 38.1375 16.5938 37.8313 16.8C36.3 17.8375 33.8062 18.3875 31.0625 18.2938C28.35 18.2 26.1875 17.5625 25.0688 16.525C24.4625 15.9688 24.3063 15.4563 24.5563 14.9C25.175 13.5438 27.75 12.6188 31.4062 12.45C31.5125 12.4438 32.0438 12.4688 32.5938 12.5ZM23.7 19.8L23.7188 23.8438L23.925 24.2625C24.3063 25.0313 25.2625 25.7625 26.525 26.2375C27.8687 26.7438 29.3313 27 31.1375 27.0438C33.625 27.1125 35.6562 26.7563 37.2812 25.975C38.3625 25.45 38.9438 24.9625 39.3188 24.25L39.4688 23.9688L39.4875 19.8875C39.5063 15.3438 39.4625 15.7 39.9563 15.9438C40.3188 16.125 40.6063 16.4125 40.8 16.7813L40.9688 17.0938V25.5V33.9063L40.825 34.1938C40.65 34.5563 40.325 34.8938 39.9813 35.0813L39.7188 35.2188H26H12.2812L12.0312 35.0875C11.65 34.8813 11.2625 34.4563 11.125 34.075C11 33.7438 11 33.625 11.0125 25.4188L11.0312 17.0938L11.1813 16.8125C11.4375 16.3188 11.8563 15.9688 12.375 15.8063C12.4625 15.7813 15.0375 15.7563 18.1063 15.7563L23.6813 15.75L23.7 19.8ZM38.8 18.625C38.7812 19.6 38.7688 19.7438 38.6438 19.9688C38.0562 21.0688 36.0063 21.9625 33.4062 22.25C32.4875 22.35 30.4813 22.3313 29.5938 22.2188C27.0875 21.8875 25.2563 21.0938 24.6438 20.0625L24.4375 19.725V18.3563C24.4375 17.0313 24.4438 16.9875 24.5563 17.0688C24.6188 17.1188 24.8063 17.2625 24.975 17.3875C25.3438 17.6625 26.1062 18.05 26.7375 18.275C30.475 19.6063 36.1125 19.1188 38.4125 17.2563L38.7812 16.9625L38.8 17.2438C38.8125 17.4063 38.8125 18.025 38.8 18.625ZM25.725 21.8625C26.6625 22.3438 28.1063 22.75 29.6125 22.9438C30.525 23.0688 32.85 23.05 33.8438 22.9125C35.8125 22.6438 37.6625 21.9688 38.5 21.2125C38.6313 21.0938 38.7563 21 38.775 21C38.8 21 38.8125 21.625 38.8 22.3875C38.7812 23.9938 38.7812 23.9938 38.1875 24.5625C37.3563 25.3625 35.6625 25.9813 33.5625 26.2625C32.7938 26.3625 30.3875 26.3625 29.625 26.2625C27.4312 25.9688 25.7312 25.3125 24.9125 24.4375C24.45 23.9438 24.4375 23.8813 24.4375 22.35V21.0063L24.8313 21.3C25.0437 21.4625 25.45 21.7125 25.725 21.8625ZM28.1187 36.3563C27.9188 36.95 27.8438 37.7188 27.9312 38.3375C27.9688 38.6313 28.0438 38.9875 28.0938 39.1313C28.2625 39.5938 28.425 39.5625 26 39.5625C23.575 39.5625 23.7375 39.5938 23.9062 39.1313C23.9563 38.9875 24.0312 38.6313 24.0688 38.3375C24.1562 37.725 24.0813 36.9625 23.8813 36.3563L23.7688 36H26.0063H28.2437L28.1187 36.3563Z" fill="#A0AEC0"/>
<path d="M13.2 18.6C13.1125 18.6625 13.0625 18.7625 13.0625 18.875C13.0625 19.2125 13.2062 19.25 14.4688 19.25C15.7313 19.25 15.875 19.2125 15.875 18.875C15.875 18.5375 15.7313 18.5 14.4688 18.5C13.55 18.5 13.3125 18.5188 13.2 18.6Z" fill="#A0AEC0"/>
<path d="M17.5312 18.6562C17.4437 18.7375 17.375 18.8375 17.375 18.875C17.375 18.9125 17.4437 19.0125 17.5312 19.0938L17.6812 19.25H19.7812H21.8812L22.0312 19.0938C22.225 18.9062 22.225 18.8438 22.0312 18.6562L21.8812 18.5H19.7812H17.6812L17.5312 18.6562Z" fill="#A0AEC0"/>
<path d="M18.4125 21.3938C18.3313 21.4563 18.1125 22.1625 17.65 23.8813C17.2938 25.2 17 26.35 17 26.4375C17 26.5313 17.0312 26.6313 17.075 26.675C17.1625 26.7625 17.4313 26.775 17.5563 26.6938C17.65 26.6313 18.9312 21.9625 18.9375 21.675C18.9375 21.5688 18.8875 21.4688 18.8 21.4125C18.6313 21.2938 18.5562 21.2875 18.4125 21.3938Z" fill="#A0AEC0"/>
<path d="M14.2814 22.7562C13.5564 23.3438 12.9501 23.8812 12.9189 23.9562C12.8876 24.0312 12.9064 24.1312 12.9626 24.2188C13.1251 24.4688 15.5814 26.4375 15.7314 26.4375C16.0064 26.4375 16.1626 26.0875 15.9876 25.8625C15.9439 25.8125 15.5814 25.5062 15.1876 25.1875C14.7939 24.8625 14.3189 24.4812 14.1439 24.325L13.8126 24.0562L14.8939 23.175C15.4814 22.6875 15.9876 22.2625 16.0126 22.225C16.1564 22.0125 15.9814 21.6875 15.7251 21.6875C15.6376 21.6875 15.1001 22.0875 14.2814 22.7562Z" fill="#A0AEC0"/>
<path d="M19.9751 21.7875C19.8688 21.8875 19.8438 22.1125 19.9251 22.225C19.9501 22.2625 20.4376 22.675 21.0188 23.15C21.5938 23.6187 22.0626 24.0312 22.0626 24.0562C22.0626 24.0875 21.6063 24.4812 21.0501 24.9375C20.4876 25.3937 19.9938 25.8125 19.9563 25.8625C19.7751 26.0875 19.9313 26.4375 20.2063 26.4375C20.3563 26.4375 22.8126 24.4688 22.9751 24.2188C23.0313 24.1312 23.0501 24.0312 23.0188 23.95C22.9438 23.7562 20.3813 21.6875 20.2126 21.6875C20.1376 21.6875 20.0251 21.7312 19.9751 21.7875Z" fill="#A0AEC0"/>
<path d="M13.1625 29.2875C13.0313 29.4187 13.0375 29.6437 13.175 29.775C13.2813 29.8687 13.5688 29.875 16.35 29.8625L19.4 29.8437L19.4938 29.6812C19.575 29.5312 19.575 29.5 19.4813 29.35L19.375 29.1875H16.3125C13.6188 29.1875 13.25 29.2 13.1625 29.2875Z" fill="#A0AEC0"/>
<path d="M20.9812 29.3C20.8437 29.45 20.8499 29.6437 20.9874 29.7687C21.0874 29.8625 21.2749 29.875 22.2937 29.875C23.3624 29.875 23.4937 29.8625 23.5812 29.7625C23.7187 29.6125 23.7124 29.4187 23.5749 29.2937C23.4749 29.2 23.2874 29.1875 22.2687 29.1875C21.1999 29.1875 21.0687 29.2 20.9812 29.3Z" fill="#A0AEC0"/>
<path d="M26.975 29.2875C26.8438 29.4125 26.85 29.65 26.975 29.775C27.0625 29.8625 27.25 29.875 28.3 29.8625L29.525 29.8438L29.6188 29.6813C29.7 29.5313 29.7 29.5 29.6063 29.35L29.5 29.1875H28.2813C27.2625 29.1875 27.0563 29.2063 26.975 29.2875Z" fill="#A0AEC0"/>
<path d="M31.1062 29.3C30.9687 29.45 30.9749 29.6437 31.1124 29.7687C31.2187 29.8625 31.5812 29.875 35.0499 29.875C38.4374 29.875 38.8749 29.8625 38.9624 29.775C39.1062 29.6375 39.0874 29.3313 38.9437 29.25C38.8624 29.2125 37.5187 29.1875 35.0124 29.1875C31.4062 29.1875 31.1999 29.1937 31.1062 29.3Z" fill="#A0AEC0"/>
<path d="M13.125 31.9312C13.0312 32.1125 13.05 32.2812 13.175 32.3937C13.2812 32.4875 13.5312 32.5 15.45 32.5C16.6437 32.5 17.6625 32.4812 17.7187 32.4625C17.8875 32.3937 17.9562 32.1312 17.8437 31.9625L17.75 31.8125H15.4687C13.2812 31.8125 13.1875 31.8187 13.125 31.9312Z" fill="#A0AEC0"/>
<path d="M19.5124 31.8875C19.4062 31.9937 19.4187 32.2875 19.5374 32.4C19.6249 32.4875 20.1937 32.5 24.8437 32.5C29.4937 32.5 30.0624 32.4875 30.1499 32.4C30.2687 32.2875 30.2812 31.9937 30.1749 31.8875C30.0687 31.7812 19.6187 31.7812 19.5124 31.8875Z" fill="#A0AEC0"/>
<path d="M32.3249 31.8875C32.2187 31.9937 32.2312 32.2875 32.3499 32.4C32.4312 32.4812 32.6249 32.5 33.4937 32.5C34.4312 32.5 34.5562 32.4875 34.6437 32.3875C34.7687 32.25 34.7812 31.9937 34.6749 31.8875C34.6249 31.8375 34.2749 31.8125 33.4999 31.8125C32.7249 31.8125 32.3749 31.8375 32.3249 31.8875Z" fill="#A0AEC0"/>
<path d="M36.6625 31.9125C36.5313 32.0437 36.5375 32.2687 36.675 32.3937C36.775 32.4812 36.95 32.5 37.8313 32.5C38.7938 32.5 38.8875 32.4875 39 32.375C39.15 32.225 39.1563 32.1375 39.025 31.95C38.9313 31.8187 38.8938 31.8125 37.8438 31.8125C36.9438 31.8125 36.7438 31.8313 36.6625 31.9125Z" fill="#A0AEC0"/>
</svg>
