<svg width="52" height="52" viewBox="0 0 52 52" fill="none" xmlns="http://www.w3.org/2000/svg">
<circle cx="26" cy="26" r="26" fill="white"/>
<path d="M26 13.25C23.4783 13.25 21.0132 13.9978 18.9165 15.3988C16.8198 16.7998 15.1856 18.791 14.2205 21.1208C13.2555 23.4505 13.003 26.0141 13.495 28.4874C13.987 30.9607 15.2013 33.2325 16.9844 35.0156C18.7675 36.7987 21.0393 38.0131 23.5126 38.505C25.9859 38.997 28.5495 38.7445 30.8792 37.7795C33.209 36.8144 35.2003 35.1802 36.6012 33.0835C38.0022 30.9868 38.75 28.5217 38.75 26C38.746 22.6197 37.4015 19.379 35.0112 16.9888C32.621 14.5985 29.3803 13.254 26 13.25ZM26 37.25C23.775 37.25 21.5999 36.5902 19.7498 35.354C17.8998 34.1179 16.4578 32.3609 15.6064 30.3052C14.7549 28.2495 14.5321 25.9875 14.9662 23.8052C15.4003 21.6229 16.4717 19.6184 18.0451 18.045C19.6184 16.4717 21.623 15.4002 23.8052 14.9662C25.9875 14.5321 28.2495 14.7549 30.3052 15.6064C32.3609 16.4578 34.1179 17.8998 35.354 19.7498C36.5902 21.5999 37.25 23.775 37.25 26C37.2467 28.9827 36.0604 31.8422 33.9513 33.9513C31.8422 36.0604 28.9827 37.2467 26 37.25ZM33.75 26C33.75 26.1989 33.671 26.3897 33.5303 26.5303C33.3897 26.671 33.1989 26.75 33 26.75H26C25.8011 26.75 25.6103 26.671 25.4697 26.5303C25.329 26.3897 25.25 26.1989 25.25 26V19C25.25 18.8011 25.329 18.6103 25.4697 18.4697C25.6103 18.329 25.8011 18.25 26 18.25C26.1989 18.25 26.3897 18.329 26.5303 18.4697C26.671 18.6103 26.75 18.8011 26.75 19V25.25H33C33.1989 25.25 33.3897 25.329 33.5303 25.4697C33.671 25.6103 33.75 25.8011 33.75 26Z" fill="#A0AEC0"/>
</svg>
