<svg width="52" height="52" viewBox="0 0 52 52" fill="none" xmlns="http://www.w3.org/2000/svg">
<circle cx="26" cy="26" r="26" fill="white"/>
<path d="M13.25 26C13.25 28.5217 13.9978 30.9868 15.3988 33.0835C16.7998 35.1802 18.791 36.8144 21.1208 37.7795C23.4505 38.7445 26.0141 38.997 28.4874 38.505C30.9607 38.013 33.2325 36.7987 35.0156 35.0156C36.7987 33.2325 38.0131 30.9607 38.505 28.4874C38.997 26.0141 38.7445 23.4505 37.7795 21.1208C36.8144 18.791 35.1802 16.7997 33.0835 15.3988C30.9868 13.9978 28.5217 13.25 26 13.25C22.6197 13.254 19.379 14.5985 16.9888 16.9888C14.5985 19.379 13.254 22.6197 13.25 26ZM37.25 26C37.25 28.225 36.5902 30.4001 35.354 32.2502C34.1179 34.1002 32.3609 35.5422 30.3052 36.3936C28.2495 37.2451 25.9875 37.4679 23.8052 37.0338C21.6229 36.5997 19.6184 35.5283 18.045 33.9549C16.4717 32.3816 15.4002 30.377 14.9662 28.1948C14.5321 26.0125 14.7549 23.7505 15.6064 21.6948C16.4578 19.6391 17.8998 17.8821 19.7498 16.646C21.5999 15.4098 23.775 14.75 26 14.75C28.9827 14.7533 31.8422 15.9396 33.9513 18.0487C36.0604 20.1578 37.2467 23.0173 37.25 26ZM26 18.25C26.1989 18.25 26.3897 18.329 26.5303 18.4697C26.671 18.6103 26.75 18.8011 26.75 19V26C26.75 26.1989 26.671 26.3897 26.5303 26.5303C26.3897 26.671 26.1989 26.75 26 26.75H19C18.8011 26.75 18.6103 26.671 18.4697 26.5303C18.329 26.3897 18.25 26.1989 18.25 26C18.25 25.8011 18.329 25.6103 18.4697 25.4697C18.6103 25.329 18.8011 25.25 19 25.25H25.25V19C25.25 18.8011 25.329 18.6103 25.4697 18.4697C25.6103 18.329 25.8011 18.25 26 18.25Z" fill="#A0AEC0"/>
</svg>
