<svg width="52" height="52" viewBox="0 0 52 52" fill="none" xmlns="http://www.w3.org/2000/svg">
<circle cx="26" cy="26" r="26" fill="white"/>
<path d="M12.9125 12.5687C12.525 12.6625 11.9563 12.9937 11.6813 13.2937C11.5437 13.4437 11.3375 13.7562 11.2313 13.9875L11.0312 14.4062V23.5062V32.6L11.2625 33.075C11.5437 33.6437 11.9062 33.9937 12.4875 34.2687L12.9062 34.4687L17.2688 34.4875L21.6313 34.5062L20.85 36.05C20.425 36.9 20.0563 37.6875 20.0375 37.8C19.9438 38.3375 20.2812 38.9875 20.825 39.2812L21.1562 39.4688H25.9688C30.7313 39.4688 30.7812 39.4688 31.0625 39.3375C31.625 39.075 31.9312 38.6 31.9375 37.9875C31.9375 37.65 31.8875 37.5312 31.175 36.1125C30.75 35.275 30.4 34.575 30.3875 34.55C30.375 34.525 32.3313 34.4937 34.7313 34.4875L39.1 34.4687L39.575 34.2375C40.1438 33.9562 40.4937 33.5937 40.7688 33.0125L40.9688 32.5937V23.5V14.4062L40.7688 13.9875C40.4937 13.4062 40.1438 13.0437 39.575 12.7625L39.1 12.5312L26.1313 12.5187C18.4375 12.5187 13.0563 12.5375 12.9125 12.5687ZM27.5 22V30.5H19.75H12V22.65C12 16.6625 12.0188 14.7375 12.075 14.5375C12.1688 14.2187 12.6938 13.6812 13 13.5812C13.1562 13.5312 15.3438 13.5125 20.3625 13.5062L27.5 13.5V22ZM38.9625 13.575C39.3062 13.675 39.825 14.1937 39.925 14.5375C39.9813 14.7375 40 16.6625 40 22.65V30.5H34.25H28.5V22V13.5H33.6C37.425 13.5 38.7688 13.5187 38.9625 13.575ZM40 31.85C40 32.0437 39.9688 32.3187 39.925 32.4625C39.825 32.8062 39.3062 33.325 38.9625 33.425C38.5875 33.5375 13.4125 33.5375 13.0375 33.425C12.6938 33.325 12.175 32.8062 12.075 32.4625C12.0312 32.3187 12 32.0437 12 31.85V31.5H26H40V31.85ZM30.15 36.15C31.0562 37.9062 31.1125 38.0875 30.8625 38.3562L30.7313 38.5H26.0063H21.2875L21.1438 38.3625C20.8813 38.1187 20.9375 37.9375 21.85 36.1625L22.7 34.5H26H29.3L30.15 36.15Z" fill="#A0AEC0"/>
<path d="M14.075 15.1062C13.9625 15.1625 13.7938 15.3062 13.7 15.425L13.5312 15.6437V18.5V21.3562L13.7 21.575C14.0437 22.025 13.6562 22 20 22C26.3438 22 25.9563 22.025 26.3 21.575L26.4688 21.3562V18.5V15.6437L26.3 15.425C25.9563 14.975 26.3438 15 19.9875 15C14.8313 15 14.2625 15.0125 14.075 15.1062ZM25.5 18.5V21H20H14.5V18.5V16H20H25.5V18.5Z" fill="#A0AEC0"/>
<path d="M14.075 23.1062C13.9625 23.1625 13.7938 23.3063 13.7 23.425L13.5312 23.6437V26V28.3562L13.7 28.575C14.0188 28.9937 14.05 29 16.5 29C18.95 29 18.9813 28.9937 19.3 28.575L19.4688 28.3562V26V23.6437L19.3 23.425C18.9813 23.0062 18.9563 23 16.4875 23C14.575 23 14.2563 23.0187 14.075 23.1062ZM18.5 26V28H16.5H14.5V26V24H16.5H18.5V26Z" fill="#A0AEC0"/>
<path d="M21.075 23.1062C20.9625 23.1625 20.7938 23.3063 20.7 23.425L20.5312 23.6437V26V28.3562L20.7 28.575C21.0188 28.9937 21.05 29 23.5 29C25.95 29 25.9813 28.9937 26.3 28.575L26.4688 28.3562V26V23.6437L26.3 23.425C25.9813 23.0062 25.9563 23 23.4875 23C21.575 23 21.2563 23.0187 21.075 23.1062ZM25.5 26V28H23.5H21.5V26V24H23.5H25.5V26Z" fill="#A0AEC0"/>
<path d="M31.375 15.5625C31.1625 15.6125 29.5437 17.7687 29.5437 18C29.5437 18.1062 29.8187 18.5312 30.3625 19.2625C30.8187 19.8687 31.2125 20.3875 31.25 20.4062C31.3812 20.4875 31.6937 20.45 31.8125 20.3437C31.8937 20.2687 31.9375 20.15 31.9375 20.0125C31.9375 19.8312 31.825 19.6437 31.3 18.9437C30.95 18.475 30.6625 18.05 30.6625 18C30.6625 17.95 30.95 17.525 31.3 17.0562C31.825 16.3562 31.9375 16.1687 31.9375 15.9875C31.9375 15.6687 31.6875 15.4812 31.375 15.5625Z" fill="#A0AEC0"/>
<path d="M34.4 15.55C34.325 15.5625 34.2188 15.6187 34.1688 15.675C34.0563 15.7937 33.05 19.7437 33.05 20.025C33.0563 20.4 33.55 20.6062 33.8125 20.3375C33.9438 20.2062 34.9375 16.3562 34.9375 15.9812C34.9375 15.6875 34.7063 15.5 34.4 15.55Z" fill="#A0AEC0"/>
<path d="M36.3375 15.5625C36.1563 15.6313 36.0563 15.7813 36.05 15.9813C36.0438 16.1188 36.2125 16.3813 36.7125 17.0563C37.075 17.5438 37.375 17.9688 37.375 18C37.375 18.0313 37.075 18.4563 36.7125 18.9438C36 19.9 35.9313 20.0813 36.1813 20.3313C36.3188 20.4688 36.6438 20.4938 36.7813 20.375C36.8313 20.3375 37.225 19.825 37.6625 19.2375C38.25 18.45 38.4563 18.1313 38.4563 18C38.4563 17.8625 38.2438 17.5375 37.6188 16.7063C36.7688 15.5813 36.6313 15.4563 36.3375 15.5625Z" fill="#A0AEC0"/>
<path d="M30.3437 23.0562C30.0312 23.1875 29.9437 23.6 30.1875 23.8375C30.3125 23.9688 30.3437 23.9688 34.2437 23.9688C38.0187 23.9688 38.1812 23.9625 38.3062 23.85C38.4875 23.6875 38.4875 23.3125 38.3062 23.15C38.1812 23.0375 38.0125 23.0312 34.3187 23.0187C32.2 23.0125 30.4125 23.0312 30.3437 23.0562Z" fill="#A0AEC0"/>
<path d="M30.3437 25.5562C30.0312 25.6875 29.9437 26.1 30.1875 26.3375C30.3125 26.4688 30.3437 26.4688 34.2437 26.4688C38.0187 26.4688 38.1812 26.4625 38.3062 26.35C38.4875 26.1875 38.4875 25.8125 38.3062 25.65C38.1812 25.5375 38.0125 25.5312 34.3187 25.5187C32.2 25.5125 30.4125 25.5312 30.3437 25.5562Z" fill="#A0AEC0"/>
<path d="M30.3437 28.0562C30.0312 28.1875 29.9437 28.6 30.1875 28.8375C30.3125 28.9688 30.3437 28.9688 34.2437 28.9688C38.0187 28.9688 38.1812 28.9625 38.3062 28.85C38.4875 28.6875 38.4875 28.3125 38.3062 28.15C38.1812 28.0375 38.0125 28.0312 34.3187 28.0187C32.2 28.0125 30.4125 28.0312 30.3437 28.0562Z" fill="#A0AEC0"/>
</svg>
