<svg width="52" height="52" viewBox="0 0 52 52" fill="none" xmlns="http://www.w3.org/2000/svg">
<circle cx="26" cy="26" r="26" fill="white"/>
<path d="M22.7999 29.8267L23.7439 28.8667L20.8773 26L23.7439 23.1333L22.7999 22.1733L18.9733 26L22.7999 29.8267ZM29.1999 29.8267L33.0266 26L29.1999 22.1733L28.2559 23.1333L31.1226 26L28.2559 28.8667L29.1999 29.8267ZM17.4866 36.6667C16.891 36.6667 16.383 36.4569 15.9626 36.0373C15.543 35.6178 15.3333 35.1098 15.3333 34.5133V17.4867C15.3333 16.8911 15.543 16.3831 15.9626 15.9627C16.3821 15.5431 16.8901 15.3333 17.4866 15.3333H23.7533C23.6324 14.6533 23.7955 14.0387 24.2426 13.4893C24.6897 12.9409 25.2755 12.6667 25.9999 12.6667C26.7421 12.6667 27.3368 12.9409 27.7839 13.4893C28.2301 14.0387 28.3844 14.6533 28.2466 15.3333H34.5133C35.1088 15.3333 35.6168 15.5431 36.0373 15.9627C36.4568 16.3822 36.6666 16.8902 36.6666 17.4867V34.5133C36.6666 35.1089 36.4568 35.6169 36.0373 36.0373C35.6177 36.4569 35.1097 36.6667 34.5133 36.6667H17.4866ZM17.4866 35.3333H34.5133C34.7177 35.3333 34.9057 35.248 35.0773 35.0773C35.2479 34.9058 35.3333 34.7178 35.3333 34.5133V17.4867C35.3333 17.2822 35.2479 17.0942 35.0773 16.9227C34.9057 16.752 34.7177 16.6667 34.5133 16.6667H17.4866C17.2821 16.6667 17.0941 16.752 16.9226 16.9227C16.7519 17.0942 16.6666 17.2822 16.6666 17.4867V34.5133C16.6666 34.7178 16.7519 34.9058 16.9226 35.0773C17.0941 35.248 17.2821 35.3333 17.4866 35.3333ZM25.9999 15.9227C26.2888 15.9227 26.5279 15.8284 26.7173 15.64C26.9066 15.4515 27.0008 15.2124 26.9999 14.9227C26.9999 14.6338 26.9053 14.3951 26.7159 14.2067C26.5266 14.0182 26.2879 13.9235 25.9999 13.9227C25.711 13.9227 25.4724 14.0173 25.2839 14.2067C25.0955 14.396 25.0008 14.6347 24.9999 14.9227C24.9999 15.2115 25.0946 15.4507 25.2839 15.64C25.4733 15.8293 25.7119 15.9235 25.9999 15.9227Z" fill="#A0AEC0"/>
</svg>
