<svg width="52" height="52" viewBox="0 0 52 52" fill="none" xmlns="http://www.w3.org/2000/svg">
<circle cx="26" cy="26" r="26" fill="white"/>
<path d="M13.2562 11.1C11.975 11.4437 11 12.675 11 13.9562C11 16.1812 13.325 17.6375 15.3312 16.6625L15.75 16.4625L16.1625 16.8812L16.5812 17.3062L16.2375 17.7C15.7437 18.2687 15.5 18.625 15.5 18.7812C15.5 18.8625 15.5875 19.1125 15.6937 19.3375C15.8 19.5625 15.9187 19.95 15.9562 20.1937C16.175 21.5937 15.275 23.0375 13.9187 23.4625C13.425 23.6187 13.375 23.7 13.2687 24.4812C13.1687 25.2312 13.1937 27.35 13.3125 27.9C13.3937 28.2937 13.4812 28.3875 13.8937 28.5187C14.2875 28.6437 14.8812 29.0187 15.1687 29.3187C15.6625 29.85 16 30.6937 16 31.4187C16 31.8 15.8562 32.3687 15.6562 32.7625C15.5687 32.9375 15.5 33.1375 15.5 33.2125C15.5 33.375 15.7375 33.7312 16.2375 34.3L16.5812 34.6937L16.1625 35.1187L15.7437 35.5375L15.3187 35.325C13.6187 34.4812 11.5812 35.425 11.0937 37.2812C10.5563 39.3687 12.4687 41.3687 14.575 40.9312C16.5 40.5312 17.525 38.4375 16.6625 36.6687L16.4625 36.25L16.8812 35.8375L17.3062 35.4187L17.7 35.7625C18.275 36.2625 18.625 36.5 18.7937 36.5C18.875 36.5 19.0812 36.4312 19.25 36.3437C19.65 36.1437 20.1937 36 20.5812 36C21.3062 36 22.15 36.3375 22.6812 36.8312C22.9812 37.1187 23.3375 37.6812 23.4625 38.0812C23.6187 38.575 23.7 38.625 24.4812 38.7312C25.225 38.8312 27.3375 38.8062 27.9 38.6875C28.2937 38.6062 28.3875 38.5187 28.5187 38.1062C28.6437 37.7125 29.0187 37.1187 29.3187 36.8312C29.85 36.3375 30.6937 36 31.4187 36C31.8062 36 32.3875 36.15 32.7687 36.3437C32.9375 36.4312 33.1375 36.5 33.2125 36.5C33.375 36.5 33.7312 36.2562 34.3 35.7625L34.6937 35.4187L35.1187 35.8375L35.5375 36.2562L35.325 36.675C34.4812 38.3812 35.425 40.4187 37.2812 40.9062C39.425 41.4625 41.4625 39.425 40.9062 37.2812C40.5125 35.7875 39.0562 34.8125 37.55 35.05C37.2812 35.0875 36.9312 35.2 36.675 35.325L36.2562 35.5375L35.8375 35.1187L35.425 34.7L35.775 34.2875C36.5687 33.35 36.6 33.2625 36.3437 32.75C36.1437 32.35 36 31.8062 36 31.4187C36 30.6937 36.3375 29.85 36.8312 29.3187C37.1187 29.0187 37.6812 28.6625 38.0812 28.5375C38.575 28.3812 38.625 28.3 38.7312 27.5187C38.8312 26.775 38.8062 24.6625 38.6875 24.1C38.6062 23.7062 38.5187 23.6125 38.1062 23.4812C37.7125 23.3562 37.1187 22.9812 36.8312 22.6812C36.3375 22.15 36 21.3062 36 20.5812C36 20.1937 36.15 19.6125 36.3437 19.2312C36.4312 19.0625 36.5 18.8625 36.5 18.7875C36.5 18.625 36.2562 18.2687 35.7625 17.7L35.4187 17.3062L35.8375 16.8812L36.2625 16.4562L36.5875 16.6312C37.475 17.1125 38.525 17.1062 39.4562 16.6125C41.5187 15.5125 41.4562 12.3312 39.35 11.3375C38.4625 10.9187 37.5375 10.9125 36.7125 11.3125C35.2 12.05 34.575 13.95 35.3625 15.4062L35.5437 15.7375L35.1187 16.1625L34.6937 16.5812L34.3 16.2375C33.7312 15.7437 33.375 15.5 33.2187 15.5C33.1375 15.5 32.8875 15.5875 32.6625 15.6937C32.4375 15.8 32.05 15.9187 31.8062 15.9562C30.4062 16.175 28.9625 15.275 28.5375 13.9187C28.3812 13.425 28.3 13.375 27.5187 13.2687C26.7687 13.1687 24.65 13.1937 24.1 13.3125C23.7062 13.3937 23.6125 13.4812 23.4812 13.8937C23.3562 14.2875 22.9812 14.8812 22.6812 15.1687C22.15 15.6625 21.3062 16 20.5812 16C20.2 16 19.6312 15.8562 19.2375 15.6562C19.0625 15.5687 18.8625 15.5 18.7875 15.5C18.625 15.5 18.2687 15.7375 17.7 16.2375L17.3062 16.5812L16.8812 16.1625L16.4625 15.7437L16.675 15.325C17.2312 14.1937 17.0312 12.8562 16.1562 11.9437C15.4062 11.1562 14.2687 10.825 13.2562 11.1ZM14.7937 12.1875C15.1812 12.35 15.6375 12.8187 15.8312 13.2375C16.0125 13.6437 16.0125 14.3562 15.8312 14.7625C15.6437 15.175 15.1812 15.6437 14.7937 15.8187C14.3375 16.025 13.6625 16.025 13.2062 15.8187C12.8187 15.6437 12.3562 15.175 12.1687 14.7625C11.9875 14.3562 11.9875 13.6437 12.1687 13.2375C12.325 12.9 12.7562 12.4062 13.025 12.2687C13.6 11.9687 14.225 11.9375 14.7937 12.1875ZM38.7937 12.1875C39.1812 12.35 39.6375 12.8187 39.8312 13.2375C39.925 13.45 39.9625 13.6562 39.9625 14C39.9625 14.575 39.8187 14.925 39.4062 15.3687C39.0125 15.7937 38.6 15.9625 38 15.9625C37.4 15.9625 36.9875 15.7937 36.5937 15.3687C36.1812 14.925 36.0375 14.575 36.0375 14C36.0375 13.4312 36.175 13.0812 36.5687 12.6562C37.1562 12.025 38 11.8437 38.7937 12.1875ZM27.1437 14.2312L27.5687 14.2687L27.8125 14.7437C28.2375 15.5875 28.8 16.1437 29.6562 16.5687C30.6062 17.0375 31.6375 17.1062 32.675 16.7562L33.1875 16.5875L33.6687 17C34.1875 17.4437 34.9125 18.1875 35.2125 18.5812L35.3937 18.8187L35.2625 19.1937C35.1875 19.4 35.0937 19.8062 35.05 20.1C34.8125 21.7437 35.75 23.4625 37.2812 24.2125L37.7312 24.4312L37.775 24.8187C37.825 25.3125 37.825 26.5937 37.7687 27.1437L37.7312 27.5687L37.2562 27.8125C36.4125 28.2375 35.8562 28.8062 35.4312 29.6562C34.925 30.6875 34.8812 31.8937 35.3312 32.9437L35.425 33.1687L35.0062 33.6625C34.5562 34.1875 33.8125 34.9125 33.4187 35.2125L33.1812 35.3937L32.8062 35.2625C32.6 35.1875 32.1937 35.0937 31.9 35.05C30.2562 34.8125 28.5437 35.7437 27.7812 37.2875L27.5625 37.7312L27.175 37.775C26.6875 37.825 25.4062 37.825 24.8562 37.7687L24.4312 37.7312L24.1875 37.2562C23.7625 36.4125 23.1937 35.8562 22.3437 35.4312C21.3125 34.925 20.1062 34.8812 19.0562 35.3312L18.8312 35.425L18.3375 35.0062C17.8187 34.5625 17.0875 33.8187 16.7875 33.4187L16.6062 33.1875L16.7437 32.7625C16.9875 32.025 17.0437 31.45 16.925 30.775C16.7 29.4562 15.8812 28.3437 14.7125 27.775L14.2687 27.5625L14.225 27.1812C14.175 26.6875 14.175 25.4062 14.2312 24.8562L14.2687 24.4312L14.7437 24.1875C16.65 23.2187 17.4875 20.9812 16.6687 19.0562L16.575 18.8312L16.9937 18.3375C17.4375 17.8187 18.1812 17.0875 18.5812 16.7875L18.8125 16.6062L19.2375 16.7437C19.9812 16.9937 20.5437 17.0437 21.2312 16.925C22.5437 16.7 23.6375 15.8937 24.225 14.7062C24.4375 14.2687 24.45 14.2562 24.7062 14.2312C25.1812 14.1875 26.7125 14.1875 27.1437 14.2312ZM14.7937 36.1875C15.1812 36.35 15.6375 36.8187 15.8312 37.2375C16.0125 37.6437 16.0125 38.3562 15.8312 38.7625C15.6437 39.175 15.1812 39.6437 14.7937 39.8187C14.3375 40.025 13.6625 40.025 13.2062 39.8187C12.8187 39.6437 12.3562 39.175 12.1687 38.7625C11.9875 38.3562 11.9875 37.6437 12.1687 37.2375C12.325 36.9 12.7562 36.4062 13.025 36.2687C13.6 35.9687 14.225 35.9375 14.7937 36.1875ZM38.7937 36.1875C39.1812 36.35 39.6375 36.8187 39.8312 37.2375C39.925 37.45 39.9625 37.6562 39.9625 38C39.9625 38.575 39.8187 38.925 39.4062 39.3687C39.0125 39.7937 38.6 39.9625 38 39.9625C37.4 39.9625 36.9875 39.7937 36.5937 39.3687C36.1812 38.925 36.0375 38.575 36.0375 38C36.0375 37.4312 36.175 37.0812 36.5687 36.6562C37.1562 36.025 38 35.8437 38.7937 36.1875Z" fill="#A0AEC0"/>
<path d="M24.7188 17.9687C21.3063 18.5125 18.7188 21.05 18.0188 24.5437C17.8687 25.3125 17.8687 26.9 18.0188 27.625C18.3688 29.25 19.0813 30.5625 20.2375 31.7062C20.8625 32.325 21.1938 32.5875 21.8375 32.9687C22.6375 33.4375 23.4938 33.7687 24.4688 33.975C25.1688 34.125 26.8438 34.125 27.5312 33.975C29.2375 33.6 30.475 32.95 31.6625 31.8C33.2 30.3062 34 28.5625 34.1063 26.4625C34.3 22.625 31.7188 19.05 28.0875 18.1312C27.0375 17.8687 25.7438 17.8062 24.7188 17.9687ZM27.2563 18.975C29.8125 19.4125 31.8938 21.2375 32.75 23.8C33.3813 25.6812 33.1875 27.825 32.2438 29.475C31.9688 29.95 31.2188 30.9375 31.1313 30.9375C31.1 30.9375 30.9688 30.75 30.8375 30.5187C30.7 30.2875 30.3688 29.8687 30.0938 29.5875C29.4125 28.8875 28.6125 28.3937 27.75 28.125C27.4688 28.0375 27.4062 27.9875 27.3875 27.8687C27.375 27.7375 27.4375 27.6875 27.825 27.5C28.3938 27.2312 29.1875 26.4687 29.4812 25.9062C29.8875 25.125 30.0563 24.2375 29.9375 23.4562C29.4688 20.35 25.9375 18.9562 23.4813 20.9062C22.7438 21.4937 22.2188 22.4437 22.0625 23.4625C21.9437 24.25 22.0563 24.9187 22.45 25.7437C22.7875 26.4562 23.5 27.1812 24.175 27.5C24.5625 27.6875 24.625 27.7375 24.6125 27.8687C24.5938 27.9875 24.5312 28.0375 24.25 28.125C23.3438 28.4125 22.6063 28.875 21.9062 29.5875C21.6313 29.8687 21.3 30.2875 21.1625 30.5187C21.0312 30.75 20.9 30.9375 20.8688 30.9375C20.7812 30.9375 20.0312 29.95 19.7563 29.475C17.6375 25.7687 19.5188 20.7312 23.5687 19.2812C24.6875 18.8875 26.0563 18.7687 27.2563 18.975ZM26.5 21.0687C27.8562 21.2875 28.7875 22.2937 28.9625 23.7562C29.075 24.6812 28.5375 25.8437 27.7375 26.4C26.6813 27.125 25.325 27.1312 24.275 26.4062C22.425 25.1312 22.6937 22.2312 24.7562 21.2812C25.3063 21.0312 25.8563 20.9625 26.5 21.0687ZM26.3625 28.175C26.3938 28.4625 26.2312 28.6875 26 28.6875C25.7812 28.6875 25.625 28.4937 25.625 28.2125C25.625 27.9562 25.6625 27.9312 26.0312 27.95C26.3375 27.9687 26.3438 27.975 26.3625 28.175ZM24.9625 29.2125C25.4375 29.8437 26.5625 29.8437 27.0437 29.2125C27.2188 28.975 27.2 28.975 27.8 29.2L28.125 29.325L27.9875 29.575C27.7688 29.9625 27.2937 30.4062 26.8938 30.6C25.9313 31.075 24.7812 30.7125 24.1312 29.7437C23.9875 29.5312 23.8875 29.3437 23.9 29.3312C23.9313 29.3 24.6937 29.0062 24.7562 29.0062C24.7812 29 24.8688 29.0937 24.9625 29.2125ZM23.2188 30.2C23.9 31.225 24.9062 31.8125 26 31.8125C27.0938 31.8125 28.1 31.225 28.7812 30.2C28.875 30.0562 28.975 29.9375 29 29.9375C29.0938 29.9375 29.8438 30.8 30.0437 31.1312C30.3625 31.6687 30.3625 31.65 29.9563 31.925C27.6125 33.5187 24.3875 33.5187 22.0438 31.925C21.6375 31.65 21.6375 31.6687 21.9563 31.1312C22.15 30.8 22.9062 29.9375 23 29.9375C23.025 29.9375 23.125 30.0562 23.2188 30.2Z" fill="#A0AEC0"/>
</svg>
