<svg width="52" height="52" viewBox="0 0 52 52" fill="none" xmlns="http://www.w3.org/2000/svg">
<circle cx="26" cy="26" r="26" fill="white"/>
<path d="M17.1875 12.6188C17.0688 12.6875 16.2125 13.5 15.2813 14.4313L13.5938 16.125L12.6875 15.225C11.6938 14.2375 11.55 14.1563 11.0625 14.3063C10.7813 14.3875 10.4688 14.725 10.4063 15C10.3 15.4813 10.3625 15.5688 11.7375 16.9563C12.45 17.675 13.1063 18.3 13.2 18.35C13.4 18.4563 13.7375 18.4625 13.9813 18.3688C14.1875 18.2938 18.3375 14.1813 18.4813 13.9125C18.6 13.6813 18.6 13.25 18.475 13.0125C18.2438 12.5688 17.6188 12.3813 17.1875 12.6188Z" fill="#A0AEC0"/>
<path d="M28.7499 12.6C28.6186 12.6562 27.8499 13.375 26.8311 14.3875L25.1311 16.0875L24.2624 15.2375C23.3186 14.3125 23.1124 14.1937 22.6499 14.2812C22.3499 14.3375 21.9686 14.7125 21.9124 15.0125C21.8249 15.5 21.8686 15.5687 23.3061 17.0125C24.4624 18.175 24.6874 18.375 24.8874 18.4062C25.4561 18.5125 25.4186 18.5375 27.7436 16.2312C30.0311 13.95 30.1749 13.7687 30.0936 13.3187C30.0124 12.8687 29.5749 12.4937 29.1436 12.5C29.0499 12.5062 28.8686 12.55 28.7499 12.6Z" fill="#A0AEC0"/>
<path d="M40.2813 12.5875C40.1813 12.6375 39.3188 13.45 38.375 14.4L36.6625 16.125L35.8125 15.2812C34.9688 14.45 34.6813 14.25 34.3313 14.25C34.0813 14.25 33.6813 14.5 33.5438 14.7312C33.4 14.9812 33.3938 15.4187 33.5188 15.6625C33.6625 15.9312 36.0625 18.2937 36.2688 18.375C36.5188 18.4625 36.85 18.4562 37.05 18.35C37.1438 18.3 38.1938 17.2812 39.3875 16.0812C41.1063 14.35 41.5563 13.8625 41.5938 13.7C41.7563 12.925 40.9813 12.275 40.2813 12.5875Z" fill="#A0AEC0"/>
<path d="M13.5312 21.2125C11.1375 21.7625 9.61249 24.1 10.1 26.4875C10.15 26.7563 10.3125 27.2125 10.4687 27.5313C10.9312 28.4813 11.5625 29.1188 12.5312 29.6C13.8062 30.2313 15.1687 30.225 16.5 29.575C17.6187 29.0313 18.4937 27.95 18.8187 26.7063C18.9875 26.05 18.9875 25.1375 18.8187 24.4813C18.4375 23.0125 17.3375 21.8438 15.8562 21.3313C15.2937 21.1375 14.125 21.075 13.5312 21.2125Z" fill="#A0AEC0"/>
<path d="M25 21.225C24.775 21.2688 24.325 21.4437 24 21.6C23.5 21.85 23.3187 21.9875 22.8437 22.4625C22.3812 22.925 22.225 23.1312 22.0187 23.5625C21.65 24.3187 21.5437 24.775 21.5437 25.5938C21.5437 26.4125 21.65 26.8687 22.0187 27.625C22.3562 28.3188 23.175 29.1687 23.8437 29.5125C24.6625 29.9375 25.05 30.0312 26 30.0312C26.95 30.0312 27.3375 29.9375 28.1562 29.5125C28.825 29.1687 29.6437 28.3188 29.9812 27.625C30.35 26.8687 30.4562 26.4125 30.4562 25.5938C30.4562 24.775 30.35 24.3187 29.9812 23.5625C29.775 23.1312 29.6187 22.925 29.1562 22.4625C28.6812 21.9875 28.5 21.85 28 21.6C27.675 21.4437 27.2125 21.2688 26.9687 21.2188C26.425 21.1062 25.5375 21.1062 25 21.225Z" fill="#A0AEC0"/>
<path d="M36.6562 21.1875C34.9688 21.5438 33.6062 22.8375 33.1813 24.4813C33.0125 25.1375 33.0125 26.05 33.1813 26.7063C33.5062 27.95 34.3813 29.0313 35.5 29.575C36.8312 30.225 38.1937 30.2313 39.4688 29.6C40.4375 29.1188 41.0688 28.4813 41.5312 27.5313C42.15 26.2563 42.15 24.9313 41.5312 23.6563C40.975 22.5125 40.1063 21.75 38.9062 21.3375C38.4938 21.2 38.275 21.1688 37.6562 21.15C37.2438 21.1375 36.7938 21.1563 36.6562 21.1875Z" fill="#A0AEC0"/>
<path d="M10.3875 30.9812C10.025 31.8375 10.0313 31.7438 10.0313 35.45C10.0313 38.825 10.0313 38.8687 10.1625 39.0437C10.2375 39.1375 10.3875 39.275 10.5063 39.3438C10.7125 39.4625 10.8313 39.4688 14.5 39.4688C18.275 39.4688 18.2813 39.4688 18.5 39.3312C18.6188 39.2562 18.775 39.1 18.8438 38.9875C18.9625 38.7875 18.9688 38.6687 18.9688 35.5C18.9688 32.5625 18.9563 32.175 18.8563 31.7812C18.75 31.3687 18.475 30.6875 18.4188 30.6875C18.4 30.6875 18.2375 30.7875 18.0563 30.9125C17.5688 31.2375 17.075 31.4812 16.45 31.6875C14.675 32.275 12.55 32 11.0125 30.975C10.775 30.8187 10.5625 30.6875 10.5438 30.6875C10.5313 30.6875 10.4563 30.8187 10.3875 30.9812Z" fill="#A0AEC0"/>
<path d="M21.8812 31.0125C21.5437 31.8125 21.5437 31.8625 21.5187 35.375L21.4937 38.6562L21.6374 38.9375C21.7249 39.1 21.8687 39.2687 21.9999 39.3438C22.2124 39.4625 22.3187 39.4688 25.9999 39.4688C29.6812 39.4688 29.7874 39.4625 29.9999 39.3438C30.1312 39.2687 30.2749 39.1 30.3624 38.9375L30.5062 38.6562L30.4812 35.375C30.4624 32.6125 30.4437 32.0312 30.3562 31.7188C30.2687 31.3812 30.0312 30.7625 29.9687 30.6937C29.9499 30.6812 29.7624 30.7875 29.5499 30.925C28.9749 31.3 28.1749 31.6562 27.5312 31.8187C26.7187 32.0312 25.2812 32.0312 24.4687 31.8187C23.8312 31.6562 23.0249 31.3 22.4624 30.9375C22.2562 30.8 22.0687 30.6875 22.0499 30.6875C22.0312 30.6875 21.9562 30.8375 21.8812 31.0125Z" fill="#A0AEC0"/>
<path d="M33.4062 31.0125C33.0438 31.8063 33.0312 31.9313 33.0312 35.5C33.0312 38.6687 33.0375 38.7875 33.1562 38.9875C33.225 39.1 33.3812 39.2562 33.5 39.3312C33.7188 39.4688 33.725 39.4688 37.5 39.4688C41.1687 39.4688 41.2875 39.4625 41.4938 39.3438C41.6125 39.275 41.7625 39.1375 41.8375 39.0437C41.9688 38.8687 41.9688 38.8062 41.9875 35.625C42.0063 32.175 41.9938 31.9688 41.6938 31.1875C41.4812 30.625 41.5063 30.6312 41 30.9688C39.45 32 37.3313 32.275 35.55 31.6875C34.925 31.4812 34.4312 31.2375 33.9438 30.9125C33.7625 30.7875 33.6 30.6875 33.5813 30.6875C33.5688 30.6875 33.4875 30.8375 33.4062 31.0125Z" fill="#A0AEC0"/>
</svg>
