<svg width="52" height="52" viewBox="0 0 52 52" fill="none" xmlns="http://www.w3.org/2000/svg">
<circle cx="26" cy="26" r="26" fill="white"/>
<g clip-path="url(#clip0_372_1659)">
<path d="M13.4001 10.0937C11.8813 10.4312 10.6813 11.5312 10.1751 13.0312L10.0313 13.4687L10.0126 25.7187C10.0001 34.4562 10.0126 38.0875 10.0626 38.375C10.3751 40.1812 11.8751 41.6562 13.6876 41.9375C14.0313 41.9875 17.7126 42 27.5001 41.9875L40.8438 41.9687L41.0938 41.8312C41.3876 41.675 41.6876 41.3687 41.8501 41.0625C41.9626 40.85 41.9688 40.4375 41.9876 29.8437C42.0001 17.7312 42.0313 18.5375 41.6188 18.0437C41.5126 17.9125 41.2813 17.7312 41.1001 17.6437C40.7938 17.4875 40.7251 17.475 39.6063 17.45L38.4251 17.425L40.1126 15.725C41.6501 14.175 41.8063 14 41.9063 13.6937C42.0313 13.3062 42.0063 12.8187 41.8438 12.4937C41.7001 12.2 39.8376 10.3312 39.5376 10.175C39.1876 9.99374 38.7126 9.96249 38.3063 10.0937C37.9876 10.1937 37.7626 10.4062 34.3438 13.8187L30.7188 17.4375H23.8313H16.9438L16.9251 14.2937C16.9063 11.2125 16.9063 11.15 16.7688 10.9062C16.6126 10.6125 16.3063 10.3125 16.0001 10.15C15.8188 10.05 15.6188 10.0312 14.7813 10.0187C14.1126 10.0062 13.6563 10.0312 13.4001 10.0937ZM15.6938 11.2437L15.8751 11.425V22.2187C15.8751 33.7312 15.8876 33.2875 15.5938 33.4C15.5376 33.4187 15.2438 33.4375 14.9501 33.4375C13.3126 33.4437 12.3251 33.7625 11.4001 34.5812L11.0626 34.8875L11.0751 24.2375L11.0938 13.5937L11.2626 13.1687C11.6188 12.2875 12.2563 11.6312 13.0688 11.3062C13.5626 11.1125 13.8188 11.075 14.7063 11.0687L15.5126 11.0625L15.6938 11.2437ZM39.9501 11.9812C40.4626 12.4937 40.8938 12.9687 40.9188 13.05C40.9751 13.275 40.8376 13.5125 40.4001 13.9437L40.0001 14.3437L38.8313 13.1687L37.6563 12L38.0626 11.5875C38.7938 10.8437 38.8001 10.8437 39.9501 11.9812ZM38.0813 13.925C38.6876 14.5312 39.1876 15.0625 39.1876 15.0937C39.1876 15.1312 39.0188 15.325 38.8126 15.5312L38.4376 15.9062L37.2688 14.7312L36.0938 13.5625L36.4688 13.1875C36.6751 12.9812 36.8688 12.8125 36.9063 12.8125C36.9438 12.8125 37.4688 13.3125 38.0813 13.925ZM34.7813 19.5625L31.8751 22.4687L30.7063 21.2937L29.5313 20.125L32.4376 17.2187L35.3438 14.3125L36.5126 15.4812L37.6876 16.6562L34.7813 19.5625ZM28.8501 19.3125C28.3813 19.7875 28.0751 20.1562 27.9938 20.3437C27.8563 20.6562 27.7063 21.6187 27.6438 22.6375L27.6063 23.3125L22.9563 23.325L18.3001 23.3437L18.1501 23.5187C17.9563 23.75 17.9563 24.025 18.1563 24.2187C18.3001 24.3687 18.3313 24.375 19.2188 24.375H20.1251V31.625C20.1251 39.3437 20.1188 39.1625 20.4063 39.275C20.6251 39.3562 20.8813 39.3125 21.0313 39.1562L21.1876 39.0062V35.1562V31.3125H24.1251H27.0626V33.4687V35.625H25.0938H23.1188L22.9688 35.7812C22.7688 35.975 22.7688 36.25 22.9626 36.4812L23.1126 36.6562L28.5626 36.675C32.2001 36.6812 34.0938 36.6687 34.2501 36.625C34.5563 36.5437 34.8688 36.2875 34.9751 36.0187C35.0438 35.8562 35.0626 35.025 35.0626 31.625V27.425L34.8813 27.2437C34.6438 27.0062 34.4188 27.0062 34.1813 27.2437L34.0001 27.425V28.8375V30.25H27.5938H21.1876L21.2001 27.325L21.2188 24.4062L25.6251 24.3687C30.3376 24.3312 31.0126 24.2875 31.6751 24C31.9063 23.9 32.5438 23.2937 34.6251 21.2187L37.2813 18.5625H38.9501C40.4938 18.5625 40.6188 18.5687 40.7563 18.6812L40.9063 18.8L40.9251 29.6875L40.9376 40.5687L40.7563 40.7562L40.5751 40.9375H27.3313C16.2126 40.9375 14.0251 40.9187 13.6813 40.85C11.9376 40.4812 10.7626 38.7 11.1501 37.0375C11.4001 35.9812 12.0751 35.2 13.1251 34.75C13.4251 34.6187 13.6063 34.5937 14.5626 34.5625C15.8376 34.5125 16.1626 34.4187 16.5376 33.9812C16.9563 33.4875 16.9376 33.875 16.9376 25.8312V18.5625H23.2626H29.5813L28.8501 19.3125ZM30.8001 23.1312C30.3626 23.2187 29.0688 23.325 28.9126 23.2875C28.6751 23.2312 28.6563 23.05 28.7751 22.0125C28.8313 21.5062 28.8751 21.0687 28.8751 21.0312C28.8751 21 29.3563 21.45 29.9376 22.0312L31.0001 23.0937L30.8001 23.1312ZM34.0001 33.4687V35.625H31.0626H28.1251V33.4687V31.3125H31.0626H34.0001V33.4687Z" fill="#A0AEC0"/>
</g>
<defs>
<clipPath id="clip0_372_1659">
<rect width="32" height="32" fill="white" transform="translate(10 10)"/>
</clipPath>
</defs>
</svg>
