<svg width="52" height="52" viewBox="0 0 52 52" fill="none" xmlns="http://www.w3.org/2000/svg">
<circle cx="26" cy="26" r="26" fill="white"/>
<g clip-path="url(#clip0_372_1659)">
<path d="M32.012 32.46C32.208 31.784 32.132 31.1654 31.8053 30.7054C31.5053 30.284 30.9987 30.04 30.3893 30.012L18.8427 29.8614C18.8076 29.862 18.773 29.8538 18.742 29.8375C18.711 29.8211 18.6846 29.7973 18.6653 29.768C18.6466 29.7371 18.6346 29.7027 18.63 29.6668C18.6254 29.631 18.6283 29.5946 18.6387 29.56C18.6596 29.5033 18.6961 29.4537 18.744 29.4169C18.7918 29.3801 18.8492 29.3576 18.9093 29.352L30.5573 29.2014C31.9373 29.136 33.4373 28.02 33.9627 26.6507L34.628 24.9147C34.658 24.8439 34.6645 24.7654 34.6467 24.6907C34.2843 23.0774 33.4046 21.6266 32.1416 20.5594C30.8786 19.4921 29.3014 18.8668 27.6502 18.7787C25.999 18.6905 24.3643 19.1443 22.9948 20.071C21.6253 20.9977 20.5962 22.3465 20.064 23.912C19.3769 23.4011 18.5241 23.1644 17.672 23.248C17.1835 23.2976 16.7114 23.452 16.288 23.7007C15.8645 23.9493 15.4997 24.2864 15.2184 24.6888C14.937 25.0913 14.7458 25.5496 14.6577 26.0327C14.5697 26.5158 14.5868 27.0122 14.708 27.488C13.4467 27.5238 12.249 28.0502 11.3698 28.9553C10.4906 29.8604 9.99915 31.0728 10 32.3347C10 32.568 10.0187 32.804 10.0467 33.0374C10.0549 33.0918 10.0822 33.1415 10.1237 33.1777C10.1653 33.2138 10.2183 33.234 10.2733 33.2347H31.58C31.6412 33.233 31.7004 33.2121 31.7492 33.175C31.798 33.138 31.8339 33.0866 31.852 33.028L32.012 32.46ZM35.688 25.0414C35.5853 25.0414 35.4733 25.0414 35.3693 25.056C35.2947 25.056 35.2293 25.112 35.2 25.1867L34.7507 26.752C34.5533 27.428 34.628 28.0467 34.956 28.508C35.256 28.9294 35.7627 29.172 36.372 29.2014L38.8307 29.352C38.9053 29.352 38.9707 29.3867 39.008 29.4454C39.0263 29.4764 39.0382 29.5108 39.043 29.5465C39.0478 29.5822 39.0454 29.6186 39.036 29.6534C39.015 29.7102 38.9783 29.76 38.9302 29.7968C38.882 29.8336 38.8244 29.856 38.764 29.8614L36.204 30.0107C34.8147 30.076 33.3253 31.1934 32.8 32.5627L32.612 33.04C32.5747 33.136 32.64 33.2294 32.744 33.2294H41.54C41.591 33.2302 41.6408 33.2141 41.6818 33.1838C41.7228 33.1534 41.7526 33.1104 41.7667 33.0614C41.9199 32.5054 41.9984 31.9314 42 31.3547C41.9954 29.6829 41.3286 28.0811 40.1456 26.8998C38.9626 25.7185 37.3598 25.0541 35.688 25.052" fill="#A0AEC0"/>
</g>
<defs>
<clipPath id="clip0_372_1659">
<rect width="32" height="32" fill="white" transform="translate(10 10)"/>
</clipPath>
</defs>
</svg>
