<svg width="52" height="52" viewBox="0 0 52 52" fill="none" xmlns="http://www.w3.org/2000/svg">
<circle cx="26" cy="26" r="26" fill="white"/>
<path d="M31.088 28.0944C29.9392 28.0944 29.008 29.3856 29.008 30.9728C29.008 32.5632 29.9392 33.8544 31.088 33.8544C32.2368 33.8544 33.168 32.5632 33.168 30.9728C33.1664 29.3856 32.2368 28.0944 31.088 28.0944ZM38.3296 20.6016C38.568 20.0176 38.5776 16.6992 37.3136 13.52C37.3136 13.52 34.416 13.8384 30.032 16.848C29.112 16.592 27.5552 16.4672 26.0016 16.4672C24.4448 16.4672 22.8896 16.592 21.9696 16.848C17.584 13.8384 14.6864 13.52 14.6864 13.52C13.424 16.6992 13.4368 20.0176 13.672 20.6016C12.1872 22.2144 11.28 24.152 11.28 26.7952C11.28 38.2928 20.8208 38.4768 23.2272 38.4768L26.0016 38.48L28.7728 38.4768C31.1824 38.4768 40.72 38.2928 40.72 26.7952C40.72 24.152 39.8144 22.2144 38.3296 20.6016ZM26.0448 37.064H25.9552C19.9216 37.064 15.2208 36.3456 15.2208 30.48C15.2208 29.0736 15.7168 27.7712 16.896 26.6896C18.8592 24.8864 22.184 25.84 25.9552 25.84H26.0448C29.816 25.84 33.1424 24.8864 35.1072 26.6896C36.2832 27.7712 36.7792 29.0736 36.7792 30.48C36.7792 36.3456 32.08 37.064 26.0448 37.064ZM20.9136 28.0944C19.7648 28.0944 18.8336 29.3856 18.8336 30.9728C18.8336 32.5632 19.7648 33.8544 20.9136 33.8544C22.064 33.8544 22.9952 32.5632 22.9952 30.9728C22.9952 29.3856 22.064 28.0944 20.9136 28.0944Z" fill="#A0AEC0"/>
</svg>
