<svg width="52" height="52" viewBox="0 0 52 52" fill="none" xmlns="http://www.w3.org/2000/svg">
<circle cx="26" cy="26" r="26" fill="white"/>
<g clip-path="url(#clip0_372_1659)">
<path d="M38.6667 15.3333H35.7778V17.1111H38.4445V36.6667H13.5556V17.1111H16.2223V15.3333H13.3334C13.1256 15.3368 12.9205 15.3812 12.7299 15.4639C12.5392 15.5467 12.3668 15.6662 12.2223 15.8156C12.0779 15.965 11.9643 16.1414 11.888 16.3347C11.8117 16.528 11.7743 16.7344 11.7778 16.9422V36.8356C11.7743 37.0434 11.8117 37.2498 11.888 37.4431C11.9643 37.6364 12.0779 37.8128 12.2223 37.9622C12.3668 38.1116 12.5392 38.2311 12.7299 38.3139C12.9205 38.3966 13.1256 38.441 13.3334 38.4445H38.6667C38.8745 38.441 39.0796 38.3966 39.2702 38.3139C39.4608 38.2311 39.6333 38.1116 39.7778 37.9622C39.9222 37.8128 40.0358 37.6364 40.1121 37.4431C40.1884 37.2498 40.2258 37.0434 40.2223 36.8356V16.9422C40.2258 16.7344 40.1884 16.528 40.1121 16.3347C40.0358 16.1414 39.9222 15.965 39.7778 15.8156C39.6333 15.6662 39.4608 15.5467 39.2702 15.4639C39.0796 15.3812 38.8745 15.3368 38.6667 15.3333Z" fill="#A0AEC0"/>
<path d="M17.1111 22.4445H18.8889V24.2222H17.1111V22.4445Z" fill="#A0AEC0"/>
<path d="M22.4443 22.4445H24.2221V24.2222H22.4443V22.4445Z" fill="#A0AEC0"/>
<path d="M27.7778 22.4445H29.5556V24.2222H27.7778V22.4445Z" fill="#A0AEC0"/>
<path d="M33.1111 22.4445H34.8889V24.2222H33.1111V22.4445Z" fill="#A0AEC0"/>
<path d="M17.1111 26.8889H18.8889V28.6667H17.1111V26.8889Z" fill="#A0AEC0"/>
<path d="M22.4443 26.8889H24.2221V28.6667H22.4443V26.8889Z" fill="#A0AEC0"/>
<path d="M27.7778 26.8889H29.5556V28.6667H27.7778V26.8889Z" fill="#A0AEC0"/>
<path d="M33.1111 26.8889H34.8889V28.6667H33.1111V26.8889Z" fill="#A0AEC0"/>
<path d="M17.1111 31.3333H18.8889V33.1111H17.1111V31.3333Z" fill="#A0AEC0"/>
<path d="M22.4443 31.3333H24.2221V33.1111H22.4443V31.3333Z" fill="#A0AEC0"/>
<path d="M27.7778 31.3333H29.5556V33.1111H27.7778V31.3333Z" fill="#A0AEC0"/>
<path d="M33.1111 31.3333H34.8889V33.1111H33.1111V31.3333Z" fill="#A0AEC0"/>
<path d="M18.8889 18.8889C19.1246 18.8889 19.3507 18.7952 19.5174 18.6285C19.6841 18.4618 19.7778 18.2357 19.7778 18V12.6667C19.7778 12.4309 19.6841 12.2048 19.5174 12.0381C19.3507 11.8714 19.1246 11.7778 18.8889 11.7778C18.6531 11.7778 18.427 11.8714 18.2603 12.0381C18.0937 12.2048 18 12.4309 18 12.6667V18C18 18.2357 18.0937 18.4618 18.2603 18.6285C18.427 18.7952 18.6531 18.8889 18.8889 18.8889Z" fill="#A0AEC0"/>
<path d="M33.1111 18.8889C33.3468 18.8889 33.5729 18.7952 33.7396 18.6285C33.9063 18.4618 33.9999 18.2357 33.9999 18V12.6667C33.9999 12.4309 33.9063 12.2048 33.7396 12.0381C33.5729 11.8714 33.3468 11.7778 33.1111 11.7778C32.8753 11.7778 32.6492 11.8714 32.4825 12.0381C32.3158 12.2048 32.2222 12.4309 32.2222 12.6667V18C32.2222 18.2357 32.3158 18.4618 32.4825 18.6285C32.6492 18.7952 32.8753 18.8889 33.1111 18.8889Z" fill="#A0AEC0"/>
<path d="M21.5557 15.3333H30.4446V17.1111H21.5557V15.3333Z" fill="#A0AEC0"/>
</g>
<defs>
<clipPath id="clip0_372_1659">
<rect width="32" height="32" fill="white" transform="translate(10 10)"/>
</clipPath>
</defs>
</svg>
