<svg width="52" height="52" viewBox="0 0 52 52" fill="none" xmlns="http://www.w3.org/2000/svg">
<circle cx="26" cy="26" r="26" fill="white"/>
<path d="M38 16H14C13.4696 16 12.9609 16.2107 12.5858 16.5858C12.2107 16.9609 12 17.4696 12 18V34C12 34.5304 12.2107 35.0391 12.5858 35.4142C12.9609 35.7893 13.4696 36 14 36H38C38.5304 36 39.0391 35.7893 39.4142 35.4142C39.7893 35.0391 40 34.5304 40 34V18C40 17.4696 39.7893 16.9609 39.4142 16.5858C39.0391 16.2107 38.5304 16 38 16ZM35.8 18L26 24.78L16.2 18H35.8ZM14 34V18.91L25.43 26.82C25.5974 26.9361 25.7963 26.9984 26 26.9984C26.2037 26.9984 26.4026 26.9361 26.57 26.82L38 18.91V34H14Z" fill="#A0AEC0"/>
</svg>
