<svg width="52" height="52" viewBox="0 0 52 52" fill="none" xmlns="http://www.w3.org/2000/svg">
<circle cx="26" cy="26" r="26" fill="white"/>
<path d="M22.7811 12.0687C21.8124 12.2562 20.8186 13.0437 20.3749 13.9625C20.0686 14.6062 19.9999 14.9937 19.9999 16.1062V17H16.5749C12.8624 17 12.7936 17.0062 12.1124 17.35C11.6686 17.575 11.1186 18.1187 10.8811 18.5562C10.4811 19.3125 10.4999 18.7625 10.4999 28.5C10.4999 38.2375 10.4811 37.6875 10.8811 38.4437C11.2686 39.1625 12.1124 39.7812 12.9311 39.9375C13.3936 40.025 38.6061 40.025 39.0686 39.9375C40.2186 39.7187 41.2249 38.7125 41.4374 37.5687C41.5249 37.1062 41.5249 19.8875 41.4374 19.4312C41.2811 18.6125 40.6624 17.7687 39.9436 17.3812C39.2311 17.0062 39.1874 17 35.4311 17H32.0124L31.9874 15.8875C31.9624 14.9 31.9436 14.7375 31.7999 14.3687C31.5811 13.7875 31.3749 13.45 30.9749 13.0437C30.5874 12.65 30.2311 12.425 29.6311 12.1937L29.2186 12.0312L26.1561 12.0187C24.3936 12.0125 22.9624 12.0375 22.7811 12.0687ZM29.5749 13.2625C30.1436 13.5437 30.4936 13.9062 30.7686 14.4875C30.9624 14.9 30.9686 14.9312 30.9874 15.95L31.0124 17H30.5061H29.9999V16.15C29.9999 15.1312 29.9374 14.9 29.5811 14.5C29.1311 14 29.1436 14 26.0124 14C24.0624 14 23.2249 14.0187 23.0374 14.075C22.8749 14.125 22.6624 14.2687 22.4686 14.4687C22.0561 14.875 21.9999 15.0875 21.9999 16.15V17H21.4936H20.9874L21.0124 15.95C21.0311 14.9312 21.0374 14.9 21.2311 14.4875C21.3374 14.2562 21.5436 13.9437 21.6811 13.7937C21.9561 13.4937 22.5249 13.1625 22.9124 13.0687C23.0499 13.0375 24.4561 13.0125 26.1311 13.0187L29.0999 13.0312L29.5749 13.2625ZM28.8436 15.1562C28.9936 15.3 28.9999 15.3375 28.9999 16.1562V17H25.9999H22.9999V16.1562C22.9999 15.3375 23.0061 15.3 23.1561 15.1562L23.3061 15H25.9999H28.6936L28.8436 15.1562ZM39.3124 18.175C39.7624 18.3937 40.0249 18.65 40.2499 19.075C40.4561 19.4562 40.4624 19.4937 40.4874 20.3125L40.5124 21.1562L36.4624 22.8062C32.6624 24.3562 32.4124 24.45 32.3499 24.3375C32.3124 24.275 32.1561 24.0937 31.9999 23.9375C31.6811 23.6187 31.3749 23.5 30.8561 23.5H30.5124L30.4874 22.2312L30.4686 20.9687L30.2561 20.575C30.0249 20.1437 29.7624 19.8937 29.3124 19.675C29.0311 19.5312 29.0186 19.5312 25.9999 19.5312H22.9686L22.6561 19.6875C22.2561 19.8812 21.8811 20.2562 21.6874 20.6562C21.5436 20.95 21.5311 21.0437 21.5124 22.2312L21.4874 23.5H21.1436C20.6249 23.5 20.3186 23.6187 19.9999 23.9375C19.8436 24.0937 19.6874 24.275 19.6499 24.3375C19.5936 24.45 19.3311 24.3562 15.5374 22.8062L11.4874 21.1562L11.5124 20.3125C11.5374 19.5812 11.5624 19.425 11.6874 19.1562C11.9499 18.6187 12.4686 18.1937 13.0311 18.0562C13.1374 18.0312 19.0249 18.0187 26.1249 18.0187L39.0311 18.0312L39.3124 18.175ZM29.0374 20.6625C29.4561 20.9687 29.4686 21.0187 29.4874 22.3687L29.5061 23.6062L29.3124 23.6875C28.8874 23.8625 28.4999 24.4937 28.4999 25C28.4999 25.5062 28.8874 26.1375 29.3124 26.3125L29.4999 26.3875V26.9437V27.5H25.9999H22.4999V26.9437V26.3875L22.6874 26.3125C23.1124 26.1375 23.4999 25.5062 23.4999 25C23.4999 24.4937 23.1124 23.8625 22.6874 23.6875L22.4999 23.6125V22.4625C22.4999 21.2812 22.5311 21.075 22.7686 20.8187C23.0624 20.5062 23.0811 20.5 26.0749 20.5187C28.7874 20.5312 28.8686 20.5375 29.0374 20.6625ZM15.5936 23.9062C18.3124 25.0125 19.5624 25.55 19.6249 25.6375C19.6749 25.7125 19.8436 25.9 19.9999 26.0625C20.3186 26.3875 20.6186 26.5 21.1499 26.5H21.4999V27.025V27.5562L21.1686 27.7062C20.7561 27.8937 20.4249 28.2125 20.2061 28.6437C20.0749 28.9062 20.0374 29.0812 20.0124 29.575C19.9874 30.1562 19.9874 30.1812 20.1436 30.3375L20.3061 30.5H22.4061H24.4999V31.9937V33.4875L23.4874 33.5125C22.5624 33.5375 22.4374 33.55 22.1561 33.6875C21.5311 33.9937 21.0874 34.6187 21.0186 35.2937C20.9874 35.5562 20.9374 35.6687 20.7749 35.8437C20.3999 36.2437 20.4124 36.8062 20.8061 37.1937C21.2124 37.6 21.7874 37.6 22.1936 37.1937C22.5936 36.7937 22.5999 36.2437 22.2124 35.8312C22.0124 35.6187 21.9936 35.5687 22.0186 35.35C22.0561 35.0812 22.1999 34.8562 22.4624 34.6625C22.6186 34.5375 22.7311 34.5312 24.0686 34.5125L25.4999 34.4937V35.05C25.4999 35.6 25.4999 35.6125 25.2811 35.8375C24.8999 36.2437 24.9124 36.8 25.3061 37.1937C25.7124 37.6 26.2874 37.6 26.6936 37.1937C27.0874 36.8 27.0999 36.2437 26.7186 35.8375C26.4999 35.6125 26.4999 35.6 26.4999 35.05V34.4937L27.9311 34.5125C29.2686 34.5312 29.3811 34.5375 29.5374 34.6625C29.7999 34.8562 29.9436 35.0812 29.9811 35.35C30.0061 35.5687 29.9874 35.6187 29.7874 35.8312C29.3999 36.2437 29.4061 36.7937 29.8061 37.1937C30.2124 37.6 30.7874 37.6 31.1936 37.1937C31.5874 36.8 31.5999 36.2437 31.2249 35.8437C31.0561 35.6687 31.0061 35.5562 30.9749 35.2687C30.9249 34.8312 30.6186 34.2437 30.3186 33.9937C29.8311 33.5937 29.6249 33.5375 28.5186 33.5125L27.4999 33.4875V31.9937V30.5H29.5936H31.6936L31.8561 30.3375C32.0061 30.1875 32.0124 30.1562 31.9874 29.6062C31.9436 28.6625 31.5686 28.0437 30.8311 27.7062L30.4999 27.5562V27.025V26.5H30.8499C31.3811 26.5 31.6811 26.3875 31.9999 26.0625C32.1561 25.9 32.3249 25.7125 32.3749 25.6437C32.4374 25.55 33.6749 25.0187 36.3436 23.9375C38.4749 23.0687 40.2811 22.3375 40.3624 22.3062L40.4999 22.25L40.4874 29.8937L40.4686 37.5312L40.2561 37.925C40.0186 38.3625 39.8249 38.55 39.3499 38.8L39.0311 38.9687H25.9999H12.9686L12.5749 38.7562C12.1436 38.525 11.8936 38.2625 11.6749 37.8125L11.5311 37.5312L11.5124 29.8812C11.4999 23.725 11.5124 22.2437 11.5749 22.2687C11.6186 22.2875 13.4311 23.025 15.5936 23.9062ZM22.3436 24.6562C22.4436 24.75 22.4999 24.8812 22.4999 25C22.4999 25.1187 22.4436 25.25 22.3436 25.3437C22.1999 25.4937 22.1499 25.5 21.4999 25.5C20.8499 25.5 20.7999 25.4937 20.6561 25.3437C20.5561 25.25 20.4999 25.1187 20.4999 25C20.4999 24.8812 20.5561 24.75 20.6561 24.6562C20.7999 24.5062 20.8499 24.5 21.4999 24.5C22.1499 24.5 22.1999 24.5062 22.3436 24.6562ZM31.3436 24.6562C31.4436 24.75 31.4999 24.8812 31.4999 25C31.4999 25.1187 31.4436 25.25 31.3436 25.3437C31.1999 25.4937 31.1499 25.5 30.4999 25.5C29.8499 25.5 29.7999 25.4937 29.6561 25.3437C29.5561 25.25 29.4999 25.1187 29.4999 25C29.4999 24.8812 29.5561 24.75 29.6561 24.6562C29.7999 24.5062 29.8499 24.5 30.4999 24.5C31.1499 24.5 31.1999 24.5062 31.3436 24.6562ZM30.5374 28.6625C30.7811 28.8375 30.9311 29.0562 30.9749 29.2937L31.0186 29.5H26.0061C20.5374 29.5 20.9186 29.525 21.0686 29.1437C21.1061 29.05 21.1936 28.9 21.2686 28.8187C21.5686 28.4937 21.4686 28.5 26.0749 28.5187C30.2999 28.5312 30.3686 28.5312 30.5374 28.6625ZM26.4999 32V33.5H25.9999H25.4999V32V30.5H25.9999H26.4999V32Z" fill="#A0AEC0"/>
</svg>
