<svg width="52" height="52" viewBox="0 0 52 52" fill="none" xmlns="http://www.w3.org/2000/svg">
<circle cx="26" cy="26" r="26" fill="white"/>
<g clip-path="url(#clip0_372_1659)">
<path d="M13.1562 12.4937C12.8375 12.6375 12.4625 13.05 12.3813 13.3562C12.3438 13.4875 12.3125 13.95 12.3125 14.3875V15.1875H11.7063C11.2437 15.1875 11.0312 15.2187 10.8375 15.3062C10.5312 15.45 10.1688 15.8562 10.075 16.1812C10.0188 16.3562 10 18.8187 10 25.6062V34.7937L10.1313 34.9625L10.2562 35.125H19.5H28.7437L28.8438 35.3187L28.9438 35.5125L28.6313 35.8437C28.1313 36.3687 28.1438 36.4187 29.1125 37.4187C30.075 38.425 30.1187 38.4375 30.6625 37.925L31 37.6062L31.6125 37.8937C31.9438 38.05 32.3938 38.2312 32.6063 38.2937L33 38.4062V38.85C33 39.2062 33.025 39.3312 33.1313 39.4625L33.2563 39.625H34.4062C35.0375 39.625 35.6 39.6062 35.6562 39.5875C35.825 39.5187 35.9375 39.2125 35.9375 38.8V38.4062L36.425 38.2562C36.6875 38.1687 37.125 37.9937 37.3938 37.8562L37.875 37.6062L38.2125 37.9312C38.75 38.4375 38.7938 38.4187 39.7938 37.4187C40.7875 36.425 40.7875 36.4125 40.2875 35.8875L39.95 35.5312L40.1938 35.0625C40.3313 34.8062 40.5125 34.3625 40.6 34.075L40.7625 33.5625H41.2313C41.6375 33.5625 41.7125 33.5437 41.8438 33.4062C42 33.2562 42 33.2437 42 32.1062C42 30.6625 42.0063 30.6687 41.2625 30.6375L40.7563 30.6125L40.625 30.1625C40.55 29.9187 40.3687 29.475 40.2188 29.1812L39.95 28.65L40.2875 28.3C40.7938 27.775 40.7875 27.7625 39.7938 26.7687C38.8188 25.7875 38.75 25.7625 38.2812 26.1937C38.125 26.3375 38 26.4375 38 26.4125C38 26.3937 38.2437 25.4437 38.5375 24.3C39.1313 22.0062 39.15 21.8312 38.8563 21.3812C38.6063 21.0062 38.225 20.8125 37.6625 20.7687L37.1938 20.7312L37.175 18.4125C37.1562 15.85 37.1562 15.85 36.7313 15.4312C36.3062 15.0062 36.7313 15.0375 30.6562 15C25.575 14.9687 25.1375 14.9625 24.9375 14.8562C24.8188 14.8 24.2688 14.3312 23.7188 13.825C22.5312 12.7312 22.45 12.675 21.95 12.5062C21.575 12.3812 21.4563 12.375 17.4875 12.375C13.675 12.375 13.3875 12.3875 13.1562 12.4937ZM21.8125 13.4875C21.9688 13.5625 22.5437 14.05 23.0938 14.5687C23.8313 15.2562 24.2 15.5562 24.5 15.7062L24.9062 15.9062L30.375 15.9375C36.0375 15.9687 36.05 15.9687 36.15 16.225C36.1688 16.275 36.1875 17.3187 36.1875 18.5375V20.75H35.5312H34.875V19.9812C34.875 18.7562 34.6812 18.2875 34.0438 17.9687L33.725 17.8125H28.3875C24.5125 17.8125 22.9812 17.7937 22.8063 17.7375C22.5437 17.6625 22.2875 17.4562 21.0437 16.3062C20.5375 15.8375 20.1313 15.5125 19.8938 15.4L19.5312 15.2187L16.4062 15.1875L13.2812 15.1562V14.3875C13.2812 13.6125 13.2812 13.6125 13.4562 13.4625L13.6375 13.3062L17.5813 13.325L21.5312 13.3437L21.8125 13.4875ZM19.5 16.3C19.6562 16.375 20.2063 16.8375 20.7188 17.3187C21.7625 18.3 22.0125 18.4937 22.4688 18.6625C22.7625 18.775 23.1 18.7812 28.2313 18.8125C33.5875 18.8437 33.6812 18.8437 33.775 18.9687C33.85 19.0625 33.8687 19.2812 33.875 19.9187V20.75L24.0813 20.7625C14.65 20.7812 14.275 20.7875 14.0625 20.9C13.7563 21.0625 13.5688 21.2437 13.4375 21.5C13.3813 21.6187 12.8125 23.725 12.1813 26.175L11.0312 30.6375L11.0125 23.525C11 16.025 10.9875 16.3062 11.2812 16.1812C11.35 16.1562 13.1625 16.1375 15.3125 16.1437L19.2188 16.1562L19.5 16.3ZM37.9 21.7875C38.1812 21.8937 38.1938 21.8125 37.1187 25.95L37.0625 26.175L36.7 26.0312C36.5063 25.9562 36.2563 25.8687 36.15 25.85L35.95 25.8062L35.925 25.3C35.8938 24.5562 35.9062 24.5625 34.4375 24.5625H33.2563L33.1313 24.725C33.025 24.8562 33 24.9812 33 25.3375V25.7812L32.6063 25.8937C32.3938 25.9562 31.9438 26.1375 31.6063 26.2937L30.9937 26.5875L30.6688 26.2625C30.1625 25.7625 30.1313 25.775 29.1375 26.7687C28.1438 27.7625 28.125 27.8125 28.625 28.3375L28.9438 28.675L28.6688 29.2312C28.5188 29.5375 28.3438 29.975 28.275 30.2062L28.1562 30.625H27.7125C27.3563 30.625 27.2313 30.65 27.1 30.7562L26.9375 30.8812V32.0937V33.3062L27.1 33.4312C27.2313 33.5375 27.3563 33.5625 27.7188 33.5625C28.1625 33.5625 28.175 33.5687 28.2125 33.7312C28.2313 33.8312 28.2625 33.9687 28.2875 34.0437L28.325 34.1875H19.7188H11.1125L11.15 34.0437C11.1688 33.9687 11.8813 31.2187 12.725 27.9375C13.5688 24.6562 14.3063 21.9187 14.3625 21.8562C14.45 21.7562 15.0938 21.75 26.1313 21.75C32.55 21.75 37.85 21.7687 37.9 21.7875ZM34.9375 25.9C34.9375 26.45 35.05 26.5812 35.625 26.7125C36.2188 26.8437 36.9062 27.125 37.3938 27.4312C37.9188 27.7625 38.05 27.7625 38.4438 27.3937L38.7563 27.1L39.0938 27.4375L39.4375 27.775L39.1438 28.075C38.7812 28.4437 38.7563 28.65 39.0438 29.0625C39.15 29.2187 39.3062 29.4812 39.3875 29.6562C39.5625 30 39.875 30.9375 39.875 31.1187C39.875 31.1812 39.9312 31.3062 40 31.3937C40.1125 31.5375 40.1812 31.5562 40.5813 31.575L41.0312 31.5937L41.05 32.075L41.0688 32.5625H40.6875C40.225 32.5625 39.9563 32.6875 39.9 32.925C39.6938 33.8625 39.45 34.475 39.0312 35.125C38.9125 35.3125 38.8125 35.5 38.8125 35.55C38.8125 35.6875 38.9375 35.8937 39.1938 36.1562L39.4375 36.4125L39.0938 36.75L38.75 37.0875L38.45 36.7937C38.0688 36.4187 37.9 36.4125 37.3625 36.75C36.8938 37.0437 36.1938 37.3312 35.575 37.4687C35.0125 37.6 34.9375 37.6937 34.9375 38.2687V38.6937L34.4563 38.675L33.9688 38.6562L33.9375 38.2062C33.9188 37.9125 33.8687 37.7187 33.8062 37.6562C33.7563 37.6 33.4813 37.5062 33.1938 37.4375C32.65 37.3062 31.9125 36.9937 31.4312 36.6875C31.0188 36.4187 30.8125 36.4375 30.4438 36.7812L30.15 37.0562L29.8125 36.7187L29.475 36.3812L29.7688 36.0687C29.9625 35.8625 30.0625 35.7 30.0625 35.5937C30.0625 35.5 29.9375 35.225 29.7938 34.9812C29.4625 34.4375 29.2188 33.8375 29.0875 33.25C28.9563 32.675 28.825 32.5625 28.275 32.5625H27.875V32.1V31.6437L28.3125 31.6125C28.8687 31.5687 28.9625 31.4875 29.0875 30.9375C29.225 30.325 29.525 29.5875 29.8125 29.1562C30.15 28.65 30.1438 28.4812 29.7812 28.125C29.625 27.975 29.5 27.8187 29.5 27.7875C29.5 27.7 30.0688 27.125 30.1562 27.125C30.1938 27.125 30.35 27.25 30.5 27.4062C30.8438 27.7562 31 27.7625 31.475 27.4625C31.9688 27.15 32.4312 26.95 33.1562 26.7437C33.5125 26.6437 33.8125 26.525 33.8563 26.4625C33.9062 26.4 33.9375 26.175 33.9375 25.925V25.5H34.4375H34.9375V25.9Z" fill="#A0AEC0"/>
<path d="M14.4126 28.8813C14.0813 29.1375 14.2501 29.6375 14.7001 29.7188C14.8126 29.7375 16.0063 29.75 17.3501 29.7375C19.6563 29.7188 19.8063 29.7125 19.9313 29.6C20.1313 29.4188 20.1126 29.05 19.9001 28.8813C19.7376 28.7563 19.6688 28.75 17.1563 28.75C14.6438 28.75 14.5751 28.7563 14.4126 28.8813Z" fill="#A0AEC0"/>
<path d="M13.8624 31.5375C13.5437 31.7063 13.5812 32.2125 13.9124 32.3687C14.0249 32.4187 15.1249 32.4375 17.6624 32.4375H21.2624L21.4437 32.2562C21.5437 32.1562 21.6249 32.0312 21.6249 31.975C21.6249 31.8 21.4874 31.575 21.3312 31.5062C21.2249 31.4563 20.0999 31.4375 17.6062 31.4375C14.5687 31.4437 14.0062 31.4563 13.8624 31.5375Z" fill="#A0AEC0"/>
<path d="M33.3874 28.0625C31.9499 28.4375 30.7874 29.6125 30.4062 31.0625C30.2749 31.55 30.2624 32.45 30.3687 32.9688C30.4124 33.175 30.5749 33.6063 30.7312 33.9313C31.2562 35.025 32.3187 35.875 33.4999 36.1563C35.3687 36.5875 37.3499 35.6375 38.1874 33.9063C38.8937 32.4438 38.7249 30.8375 37.7249 29.5188C37.1874 28.8063 36.3124 28.2438 35.4374 28.0375C34.8749 27.9 33.9499 27.9188 33.3874 28.0625ZM35.0937 28.9688C36.2999 29.225 37.3062 30.2063 37.5624 31.3813C37.6812 31.9125 37.6187 32.825 37.4374 33.25C36.6687 35.05 34.6999 35.8 32.9937 34.9313C32.4874 34.6813 31.8312 34.025 31.6062 33.5625C30.9812 32.2563 31.1937 30.8563 32.1812 29.8688C32.6499 29.4 33.1874 29.0938 33.7749 28.9688C34.2812 28.8563 34.5687 28.8563 35.0937 28.9688Z" fill="#A0AEC0"/>
</g>
<defs>
<clipPath id="clip0_372_1659">
<rect width="32" height="32" fill="white" transform="translate(10 10)"/>
</clipPath>
</defs>
</svg>
