<svg width="52" height="52" viewBox="0 0 52 52" fill="none" xmlns="http://www.w3.org/2000/svg">
<circle cx="26" cy="26" r="26" fill="white"/>
<path d="M30 38H27.3333C26.6261 38 25.9478 37.719 25.4477 37.219C24.9476 36.7189 24.6667 36.0406 24.6667 35.3333C24.6667 34.6261 24.9476 33.9478 25.4477 33.4477C25.9478 32.9476 26.6261 32.6667 27.3333 32.6667H30V30H27.3333C25.9188 30 24.5623 30.5619 23.5621 31.5621C22.5619 32.5623 22 33.9188 22 35.3333C22 36.7478 22.5619 38.1044 23.5621 39.1046C24.5623 40.1048 25.9188 40.6667 27.3333 40.6667H30V38ZM40.6667 35.3333C40.6667 36.7478 40.1048 38.1044 39.1046 39.1046C38.1044 40.1048 36.7478 40.6667 35.3333 40.6667H32.6667V38H35.3333C36.0406 38 36.7189 37.719 37.219 37.219C37.719 36.7189 38 36.0406 38 35.3333C38 34.6261 37.719 33.9478 37.219 33.4477C36.7189 32.9476 36.0406 32.6667 35.3333 32.6667H32.6667V30H35.3333C36.7478 30 38.1044 30.5619 39.1046 31.5621C40.1048 32.5623 40.6667 33.9188 40.6667 35.3333Z" fill="#A0AEC0"/>
<path d="M28.6667 34.0003H34V36.6669H28.6667V34.0003ZM19.3333 35.3336C19.3359 34.8866 19.3761 34.4406 19.4533 34.0003H14V32.1336C14 29.4669 19.3333 28.0003 22 28.0003C22.6035 28.0081 23.2054 28.0638 23.8 28.1669C24.8976 27.62 26.107 27.3347 27.3333 27.3336H34V15.3336C33.9979 14.627 33.7163 13.95 33.2166 13.4503C32.717 12.9507 32.0399 12.669 31.3333 12.6669H25.76C25.487 11.8875 24.9785 11.2122 24.3049 10.7344C23.6313 10.2566 22.8258 10 22 10C21.1742 10 20.3687 10.2566 19.6951 10.7344C19.0215 11.2122 18.513 11.8875 18.24 12.6669H12.6667C11.9601 12.669 11.283 12.9507 10.7834 13.4503C10.2837 13.95 10.0021 14.627 10 15.3336V34.0003C10.0021 34.7069 10.2837 35.3839 10.7834 35.8836C11.283 36.3832 11.9601 36.6648 12.6667 36.6669H19.4533C19.3761 36.2266 19.3359 35.7806 19.3333 35.3336ZM22 12.6669C22.2637 12.6669 22.5215 12.7451 22.7408 12.8916C22.96 13.0382 23.1309 13.2464 23.2318 13.49C23.3328 13.7337 23.3592 14.0017 23.3077 14.2604C23.2563 14.519 23.1293 14.7566 22.9428 14.9431C22.7563 15.1295 22.5188 15.2565 22.2601 15.308C22.0015 15.3594 21.7334 15.333 21.4898 15.2321C21.2461 15.1312 21.0379 14.9603 20.8914 14.741C20.7449 14.5218 20.6667 14.264 20.6667 14.0003C20.6677 13.647 20.8085 13.3084 21.0584 13.0586C21.3082 12.8088 21.6467 12.668 22 12.6669ZM22 18.0003C22.7911 18.0003 23.5645 18.2349 24.2223 18.6744C24.8801 19.1139 25.3928 19.7386 25.6955 20.4695C25.9983 21.2004 26.0775 22.0047 25.9231 22.7806C25.7688 23.5566 25.3878 24.2693 24.8284 24.8287C24.269 25.3881 23.5563 25.7691 22.7804 25.9234C22.0044 26.0778 21.2002 25.9985 20.4693 25.6958C19.7384 25.393 19.1136 24.8803 18.6741 24.2226C18.2346 23.5648 18 22.7914 18 22.0003C17.9993 21.4748 18.1023 20.9543 18.3031 20.4687C18.5038 19.9831 18.7984 19.5419 19.17 19.1703C19.5416 18.7987 19.9828 18.5041 20.4684 18.3033C20.9541 18.1026 21.4745 17.9996 22 18.0003Z" fill="#A0AEC0"/>
</svg>