<svg width="180" height="35" viewBox="0 0 180 35" fill="none" xmlns="http://www.w3.org/2000/svg">
<path d="M50.8807 11.3438V9.45455H62.1378V11.3438H57.5994V24H55.4119V11.3438H50.8807ZM70.3254 24V9.45455H79.4447V11.3438H72.52V15.7756H78.9688V17.6577H72.52V22.1108H79.5299V24H70.3254ZM89.6031 9.45455L93.0832 15.1435H93.1969L96.677 9.45455H99.2196L94.6884 16.7273L99.248 24H96.6912L93.1969 18.3892H93.0832L89.5889 24H87.0321L91.6699 16.7273L87.0605 9.45455H89.6031ZM108.325 24H105.996L111.23 9.45455H113.765L119 24H116.67L112.558 12.0966H112.444L108.325 24ZM108.716 18.304H116.273V20.1506H108.716V18.304ZM135.961 14.0497C135.823 13.6188 135.639 13.233 135.407 12.892C135.179 12.5464 134.907 12.2528 134.59 12.0114C134.273 11.7652 133.91 11.5781 133.503 11.4503C133.101 11.3224 132.658 11.2585 132.175 11.2585C131.356 11.2585 130.617 11.4692 129.959 11.8906C129.301 12.312 128.78 12.9299 128.397 13.7443C128.018 14.554 127.828 15.5459 127.828 16.7202C127.828 17.8991 128.02 18.8958 128.404 19.7102C128.787 20.5246 129.313 21.1425 129.98 21.5639C130.648 21.9853 131.408 22.196 132.26 22.196C133.051 22.196 133.74 22.035 134.327 21.7131C134.919 21.3911 135.376 20.9366 135.698 20.3494C136.024 19.7576 136.188 19.0616 136.188 18.2614L136.756 18.3679H132.594V16.5568H138.311V18.2116C138.311 19.4332 138.051 20.4938 137.53 21.3935C137.014 22.2884 136.299 22.9796 135.385 23.4673C134.476 23.955 133.434 24.1989 132.26 24.1989C130.944 24.1989 129.789 23.8958 128.794 23.2898C127.805 22.6837 127.033 21.8243 126.479 20.7116C125.925 19.5942 125.648 18.2685 125.648 16.7344C125.648 15.5743 125.809 14.5327 126.131 13.6094C126.453 12.6861 126.905 11.9025 127.488 11.2585C128.075 10.6098 128.764 10.1151 129.554 9.77415C130.35 9.4285 131.219 9.25568 132.161 9.25568C132.947 9.25568 133.678 9.37169 134.355 9.60369C135.037 9.8357 135.643 10.1648 136.174 10.5909C136.709 11.017 137.151 11.5237 137.502 12.1108C137.852 12.6932 138.089 13.3395 138.212 14.0497H135.961ZM159.432 16.7273C159.432 18.2803 159.148 19.6155 158.58 20.733C158.012 21.8456 157.233 22.7027 156.243 23.304C155.258 23.9006 154.139 24.1989 152.884 24.1989C151.624 24.1989 150.5 23.9006 149.51 23.304C148.525 22.7027 147.749 21.8433 147.181 20.7259C146.613 19.6084 146.328 18.2756 146.328 16.7273C146.328 15.1742 146.613 13.8414 147.181 12.7287C147.749 11.6113 148.525 10.7543 149.51 10.1577C150.5 9.55634 151.624 9.25568 152.884 9.25568C154.139 9.25568 155.258 9.55634 156.243 10.1577C157.233 10.7543 158.012 11.6113 158.58 12.7287C159.148 13.8414 159.432 15.1742 159.432 16.7273ZM157.259 16.7273C157.259 15.5436 157.067 14.5469 156.684 13.7372C156.305 12.9228 155.784 12.3073 155.121 11.8906C154.463 11.4692 153.717 11.2585 152.884 11.2585C152.046 11.2585 151.298 11.4692 150.64 11.8906C149.981 12.3073 149.461 12.9228 149.077 13.7372C148.698 14.5469 148.509 15.5436 148.509 16.7273C148.509 17.911 148.698 18.91 149.077 19.7244C149.461 20.5341 149.981 21.1496 150.64 21.571C151.298 21.9877 152.046 22.196 152.884 22.196C153.717 22.196 154.463 21.9877 155.121 21.571C155.784 21.1496 156.305 20.5341 156.684 19.7244C157.067 18.91 157.259 17.911 157.259 16.7273ZM179.608 9.45455V24H177.591L170.198 13.3324H170.063V24H167.868V9.45455H169.9L177.3 20.1364H177.435V9.45455H179.608Z" fill="white"/>
<path d="M2.34456 9.9047L15.5 2.3094L28.6554 9.9047V25.0953L15.5 32.6906L2.34456 25.0953V9.9047ZM1.84456 24.8066C1.845 24.8069 1.84544 24.8071 1.84589 24.8074L1.84456 24.8066L1.34456 25.6726L1.84456 24.8066Z" stroke="url(#paint0_linear_0_1)" stroke-width="4"/>
<defs>
<linearGradient id="paint0_linear_0_1" x1="33" y1="17.5" x2="-2" y2="17.7966" gradientUnits="userSpaceOnUse">
<stop stop-color="#262626"/>
<stop offset="1" stop-color="white"/>
</linearGradient>
</defs>
</svg>
